<?xml version="1.0" encoding="UTF-8"?>
<!DOCTYPE svg PUBLIC "-//W3C//DTD SVG 1.1//EN" "http://www.w3.org/Graphics/SVG/1.1/DTD/svg11.dtd">
<svg version="1.2" xmlns="http://www.w3.org/2000/svg" xmlns:xlink="http://www.w3.org/1999/xlink" x="0mm" y="0mm" width="400mm" height="400mm" viewBox="0 0 400 400">
<style type="text/css"><![CDATA[
text { font:12px Dialog; }
]]></style>
<line x1="20" y1="200" x2="420" y2="200" style="fill:none;stroke:rgb(0,0,0);stroke-linecap:square" />
<line x1="20" y1="200" x2="20" y2="-200" style="fill:none;stroke:rgb(0,0,0);stroke-linecap:square" />
<line x1="20" y1="204" x2="20" y2="196" style="fill:none;stroke:rgb(0,0,0);stroke-linecap:square" />
<line x1="40" y1="204" x2="40" y2="196" style="fill:none;stroke:rgb(0,0,0);stroke-linecap:square" />
<text x="37" y="206" style="font:4px Dialog">10</text>
<line x1="60" y1="204" x2="60" y2="196" style="fill:none;stroke:rgb(0,0,0);stroke-linecap:square" />
<text x="57" y="206" style="font:4px Dialog">20</text>
<line x1="80" y1="204" x2="80" y2="196" style="fill:none;stroke:rgb(0,0,0);stroke-linecap:square" />
<text x="77" y="206" style="font:4px Dialog">30</text>
<line x1="100" y1="204" x2="100" y2="196" style="fill:none;stroke:rgb(0,0,0);stroke-linecap:square" />
<text x="97" y="206" style="font:4px Dialog">40</text>
<line x1="120" y1="204" x2="120" y2="196" style="fill:none;stroke:rgb(0,0,0);stroke-linecap:square" />
<text x="117" y="206" style="font:4px Dialog">50</text>
<line x1="140" y1="204" x2="140" y2="196" style="fill:none;stroke:rgb(0,0,0);stroke-linecap:square" />
<text x="137" y="206" style="font:4px Dialog">60</text>
<line x1="160" y1="204" x2="160" y2="196" style="fill:none;stroke:rgb(0,0,0);stroke-linecap:square" />
<text x="157" y="206" style="font:4px Dialog">70</text>
<line x1="180" y1="204" x2="180" y2="196" style="fill:none;stroke:rgb(0,0,0);stroke-linecap:square" />
<text x="177" y="206" style="font:4px Dialog">80</text>
<line x1="200" y1="204" x2="200" y2="196" style="fill:none;stroke:rgb(0,0,0);stroke-linecap:square" />
<text x="197" y="206" style="font:4px Dialog">90</text>
<line x1="220" y1="204" x2="220" y2="196" style="fill:none;stroke:rgb(0,0,0);stroke-linecap:square" />
<text x="217" y="206" style="font:4px Dialog">100</text>
<line x1="240" y1="204" x2="240" y2="196" style="fill:none;stroke:rgb(0,0,0);stroke-linecap:square" />
<text x="237" y="206" style="font:4px Dialog">110</text>
<line x1="260" y1="204" x2="260" y2="196" style="fill:none;stroke:rgb(0,0,0);stroke-linecap:square" />
<text x="257" y="206" style="font:4px Dialog">120</text>
<line x1="280" y1="204" x2="280" y2="196" style="fill:none;stroke:rgb(0,0,0);stroke-linecap:square" />
<text x="277" y="206" style="font:4px Dialog">130</text>
<line x1="300" y1="204" x2="300" y2="196" style="fill:none;stroke:rgb(0,0,0);stroke-linecap:square" />
<text x="297" y="206" style="font:4px Dialog">140</text>
<line x1="320" y1="204" x2="320" y2="196" style="fill:none;stroke:rgb(0,0,0);stroke-linecap:square" />
<text x="317" y="206" style="font:4px Dialog">150</text>
<line x1="340" y1="204" x2="340" y2="196" style="fill:none;stroke:rgb(0,0,0);stroke-linecap:square" />
<text x="337" y="206" style="font:4px Dialog">160</text>
<line x1="360" y1="204" x2="360" y2="196" style="fill:none;stroke:rgb(0,0,0);stroke-linecap:square" />
<text x="357" y="206" style="font:4px Dialog">170</text>
<line x1="380" y1="204" x2="380" y2="196" style="fill:none;stroke:rgb(0,0,0);stroke-linecap:square" />
<text x="377" y="206" style="font:4px Dialog">180</text>
<line x1="400" y1="204" x2="400" y2="196" style="fill:none;stroke:rgb(0,0,0);stroke-linecap:square" />
<text x="397" y="206" style="font:4px Dialog">190</text>
<line x1="16" y1="200" x2="24" y2="200" style="fill:none;stroke:rgb(0,0,0);stroke-linecap:square" />
<line x1="16" y1="180" x2="24" y2="180" style="fill:none;stroke:rgb(0,0,0);stroke-linecap:square" />
<text x="4" y="182" style="font:4px Dialog">10</text>
<line x1="16" y1="160" x2="24" y2="160" style="fill:none;stroke:rgb(0,0,0);stroke-linecap:square" />
<text x="4" y="162" style="font:4px Dialog">20</text>
<line x1="16" y1="140" x2="24" y2="140" style="fill:none;stroke:rgb(0,0,0);stroke-linecap:square" />
<text x="4" y="142" style="font:4px Dialog">30</text>
<line x1="16" y1="120" x2="24" y2="120" style="fill:none;stroke:rgb(0,0,0);stroke-linecap:square" />
<text x="4" y="122" style="font:4px Dialog">40</text>
<line x1="16" y1="100" x2="24" y2="100" style="fill:none;stroke:rgb(0,0,0);stroke-linecap:square" />
<text x="4" y="102" style="font:4px Dialog">50</text>
<line x1="16" y1="80" x2="24" y2="80" style="fill:none;stroke:rgb(0,0,0);stroke-linecap:square" />
<text x="4" y="82" style="font:4px Dialog">60</text>
<line x1="16" y1="60" x2="24" y2="60" style="fill:none;stroke:rgb(0,0,0);stroke-linecap:square" />
<text x="4" y="62" style="font:4px Dialog">70</text>
<line x1="16" y1="40" x2="24" y2="40" style="fill:none;stroke:rgb(0,0,0);stroke-linecap:square" />
<text x="4" y="42" style="font:4px Dialog">80</text>
<line x1="16" y1="20" x2="24" y2="20" style="fill:none;stroke:rgb(0,0,0);stroke-linecap:square" />
<text x="4" y="22" style="font:4px Dialog">90</text>
<line x1="16" y1="0" x2="24" y2="0" style="fill:none;stroke:rgb(0,0,0);stroke-linecap:square" />
<text x="4" y="2" style="font:4px Dialog">100</text>
<line x1="16" y1="-20" x2="24" y2="-20" style="fill:none;stroke:rgb(0,0,0);stroke-linecap:square" />
<text x="4" y="-18" style="font:4px Dialog">110</text>
<line x1="16" y1="-40" x2="24" y2="-40" style="fill:none;stroke:rgb(0,0,0);stroke-linecap:square" />
<text x="4" y="-38" style="font:4px Dialog">120</text>
<line x1="16" y1="-60" x2="24" y2="-60" style="fill:none;stroke:rgb(0,0,0);stroke-linecap:square" />
<text x="4" y="-58" style="font:4px Dialog">130</text>
<line x1="16" y1="-80" x2="24" y2="-80" style="fill:none;stroke:rgb(0,0,0);stroke-linecap:square" />
<text x="4" y="-78" style="font:4px Dialog">140</text>
<line x1="16" y1="-100" x2="24" y2="-100" style="fill:none;stroke:rgb(0,0,0);stroke-linecap:square" />
<text x="4" y="-98" style="font:4px Dialog">150</text>
<line x1="16" y1="-120" x2="24" y2="-120" style="fill:none;stroke:rgb(0,0,0);stroke-linecap:square" />
<text x="4" y="-118" style="font:4px Dialog">160</text>
<line x1="16" y1="-140" x2="24" y2="-140" style="fill:none;stroke:rgb(0,0,0);stroke-linecap:square" />
<text x="4" y="-138" style="font:4px Dialog">170</text>
<line x1="16" y1="-160" x2="24" y2="-160" style="fill:none;stroke:rgb(0,0,0);stroke-linecap:square" />
<text x="4" y="-158" style="font:4px Dialog">180</text>
<line x1="16" y1="-180" x2="24" y2="-180" style="fill:none;stroke:rgb(0,0,0);stroke-linecap:square" />
<text x="4" y="-178" style="font:4px Dialog">190</text>
<line x1="24" y1="126" x2="25" y2="127" style="fill:none;stroke:rgb(0,0,0);stroke-linecap:square" />
<text x="27" y="128" style="font:4px Dialog">2,37</text>
<line x1="122" y1="148" x2="123" y2="149" style="fill:none;stroke:rgb(0,0,0);stroke-linecap:square" />
<text x="125" y="150" style="font:4px Dialog">51,26</text>
<line x1="90" y1="64" x2="91" y2="65" style="fill:none;stroke:rgb(0,0,0);stroke-linecap:square" />
<text x="93" y="66" style="font:4px Dialog">35,68</text>
<line x1="92" y1="82" x2="93" y2="83" style="fill:none;stroke:rgb(0,0,0);stroke-linecap:square" />
<text x="95" y="84" style="font:4px Dialog">36,59</text>
<line x1="26" y1="106" x2="27" y2="107" style="fill:none;stroke:rgb(0,0,0);stroke-linecap:square" />
<text x="29" y="108" style="font:4px Dialog">3,47</text>
<line x1="182" y1="116" x2="183" y2="117" style="fill:none;stroke:rgb(0,0,0);stroke-linecap:square" />
<text x="185" y="118" style="font:4px Dialog">81,42</text>
<line x1="104" y1="100" x2="105" y2="101" style="fill:none;stroke:rgb(0,0,0);stroke-linecap:square" />
<text x="107" y="102" style="font:4px Dialog">42,50</text>
<line x1="52" y1="80" x2="53" y2="81" style="fill:none;stroke:rgb(0,0,0);stroke-linecap:square" />
<text x="55" y="82" style="font:4px Dialog">16,60</text>
<line x1="194" y1="160" x2="195" y2="161" style="fill:none;stroke:rgb(0,0,0);stroke-linecap:square" />
<text x="197" y="162" style="font:4px Dialog">87,20</text>
<line x1="146" y1="116" x2="147" y2="117" style="fill:none;stroke:rgb(0,0,0);stroke-linecap:square" />
<text x="149" y="118" style="font:4px Dialog">63,42</text>
<line x1="164" y1="200" x2="165" y2="201" style="fill:none;stroke:rgb(0,0,0);stroke-linecap:square" />
<text x="167" y="202" style="font:4px Dialog">72,0</text>
<line x1="164" y1="24" x2="165" y2="25" style="fill:none;stroke:rgb(0,0,0);stroke-linecap:square" />
<text x="167" y="26" style="font:4px Dialog">72,88</text>
<line x1="172" y1="184" x2="173" y2="185" style="fill:none;stroke:rgb(0,0,0);stroke-linecap:square" />
<text x="175" y="186" style="font:4px Dialog">76,8</text>
<line x1="94" y1="78" x2="95" y2="79" style="fill:none;stroke:rgb(0,0,0);stroke-linecap:square" />
<text x="97" y="80" style="font:4px Dialog">37,61</text>
<line x1="36" y1="72" x2="37" y2="73" style="fill:none;stroke:rgb(0,0,0);stroke-linecap:square" />
<text x="39" y="74" style="font:4px Dialog">8,64</text>
<line x1="154" y1="136" x2="155" y2="137" style="fill:none;stroke:rgb(0,0,0);stroke-linecap:square" />
<text x="157" y="138" style="font:4px Dialog">67,32</text>
<line x1="96" y1="2" x2="97" y2="3" style="fill:none;stroke:rgb(0,0,0);stroke-linecap:square" />
<text x="99" y="4" style="font:4px Dialog">38,99</text>
<line x1="72" y1="130" x2="73" y2="131" style="fill:none;stroke:rgb(0,0,0);stroke-linecap:square" />
<text x="75" y="132" style="font:4px Dialog">26,35</text>
<line x1="50" y1="4" x2="51" y2="5" style="fill:none;stroke:rgb(0,0,0);stroke-linecap:square" />
<text x="53" y="6" style="font:4px Dialog">15,98</text>
<line x1="74" y1="134" x2="75" y2="135" style="fill:none;stroke:rgb(0,0,0);stroke-linecap:square" />
<text x="77" y="136" style="font:4px Dialog">27,33</text>
<line x1="68" y1="80" x2="69" y2="81" style="fill:none;stroke:rgb(0,0,0);stroke-linecap:square" />
<text x="71" y="82" style="font:4px Dialog">24,60</text>
<line x1="62" y1="124" x2="63" y2="125" style="fill:none;stroke:rgb(0,0,0);stroke-linecap:square" />
<text x="65" y="126" style="font:4px Dialog">21,38</text>
<line x1="128" y1="58" x2="129" y2="59" style="fill:none;stroke:rgb(0,0,0);stroke-linecap:square" />
<text x="131" y="60" style="font:4px Dialog">54,71</text>
<line x1="20" y1="156" x2="21" y2="157" style="fill:none;stroke:rgb(0,0,0);stroke-linecap:square" />
<text x="23" y="158" style="font:4px Dialog">0,22</text>
<line x1="62" y1="58" x2="63" y2="59" style="fill:none;stroke:rgb(0,0,0);stroke-linecap:square" />
<text x="65" y="60" style="font:4px Dialog">21,71</text>
<line x1="186" y1="74" x2="187" y2="75" style="fill:none;stroke:rgb(0,0,0);stroke-linecap:square" />
<text x="189" y="76" style="font:4px Dialog">83,63</text>
<line x1="128" y1="94" x2="129" y2="95" style="fill:none;stroke:rgb(0,0,0);stroke-linecap:square" />
<text x="131" y="96" style="font:4px Dialog">54,53</text>
<line x1="122" y1="192" x2="123" y2="193" style="fill:none;stroke:rgb(0,0,0);stroke-linecap:square" />
<text x="125" y="194" style="font:4px Dialog">51,4</text>
<line x1="160" y1="52" x2="161" y2="53" style="fill:none;stroke:rgb(0,0,0);stroke-linecap:square" />
<text x="163" y="54" style="font:4px Dialog">70,74</text>
<line x1="120" y1="48" x2="121" y2="49" style="fill:none;stroke:rgb(0,0,0);stroke-linecap:square" />
<text x="123" y="50" style="font:4px Dialog">50,76</text>
<line x1="72" y1="36" x2="73" y2="37" style="fill:none;stroke:rgb(0,0,0);stroke-linecap:square" />
<text x="75" y="38" style="font:4px Dialog">26,82</text>
<line x1="174" y1="138" x2="175" y2="139" style="fill:none;stroke:rgb(0,0,0);stroke-linecap:square" />
<text x="177" y="140" style="font:4px Dialog">77,31</text>
<line x1="116" y1="100" x2="117" y2="101" style="fill:none;stroke:rgb(0,0,0);stroke-linecap:square" />
<text x="119" y="102" style="font:4px Dialog">48,50</text>
<line x1="96" y1="80" x2="97" y2="81" style="fill:none;stroke:rgb(0,0,0);stroke-linecap:square" />
<text x="99" y="82" style="font:4px Dialog">38,60</text>
<line x1="68" y1="8" x2="69" y2="9" style="fill:none;stroke:rgb(0,0,0);stroke-linecap:square" />
<text x="71" y="10" style="font:4px Dialog">24,96</text>
<line x1="128" y1="4" x2="129" y2="5" style="fill:none;stroke:rgb(0,0,0);stroke-linecap:square" />
<text x="131" y="6" style="font:4px Dialog">54,98</text>
<line x1="102" y1="174" x2="103" y2="175" style="fill:none;stroke:rgb(0,0,0);stroke-linecap:square" />
<text x="105" y="176" style="font:4px Dialog">41,13</text>
<line x1="166" y1="118" x2="167" y2="119" style="fill:none;stroke:rgb(0,0,0);stroke-linecap:square" />
<text x="169" y="120" style="font:4px Dialog">73,41</text>
<line x1="182" y1="84" x2="183" y2="85" style="fill:none;stroke:rgb(0,0,0);stroke-linecap:square" />
<text x="185" y="86" style="font:4px Dialog">81,58</text>
<line x1="140" y1="82" x2="141" y2="83" style="fill:none;stroke:rgb(0,0,0);stroke-linecap:square" />
<text x="143" y="84" style="font:4px Dialog">60,59</text>
<line x1="92" y1="46" x2="93" y2="47" style="fill:none;stroke:rgb(0,0,0);stroke-linecap:square" />
<text x="95" y="48" style="font:4px Dialog">36,77</text>
<line x1="200" y1="60" x2="201" y2="61" style="fill:none;stroke:rgb(0,0,0);stroke-linecap:square" />
<text x="203" y="62" style="font:4px Dialog">90,70</text>
<line x1="192" y1="170" x2="193" y2="171" style="fill:none;stroke:rgb(0,0,0);stroke-linecap:square" />
<text x="195" y="172" style="font:4px Dialog">86,15</text>
<line x1="68" y1="78" x2="69" y2="79" style="fill:none;stroke:rgb(0,0,0);stroke-linecap:square" />
<text x="71" y="80" style="font:4px Dialog">24,61</text>
<line x1="64" y1="140" x2="65" y2="141" style="fill:none;stroke:rgb(0,0,0);stroke-linecap:square" />
<text x="67" y="142" style="font:4px Dialog">22,30</text>
<line x1="192" y1="36" x2="193" y2="37" style="fill:none;stroke:rgb(0,0,0);stroke-linecap:square" />
<text x="195" y="38" style="font:4px Dialog">86,82</text>
<line x1="168" y1="56" x2="169" y2="57" style="fill:none;stroke:rgb(0,0,0);stroke-linecap:square" />
<text x="171" y="58" style="font:4px Dialog">74,72</text>
<line x1="46" y1="174" x2="47" y2="175" style="fill:none;stroke:rgb(0,0,0);stroke-linecap:square" />
<text x="49" y="176" style="font:4px Dialog">13,13</text>
<line x1="168" y1="154" x2="169" y2="155" style="fill:none;stroke:rgb(0,0,0);stroke-linecap:square" />
<text x="171" y="156" style="font:4px Dialog">74,23</text>
<line x1="80" y1="46" x2="81" y2="47" style="fill:none;stroke:rgb(0,0,0);stroke-linecap:square" />
<text x="83" y="48" style="font:4px Dialog">30,77</text>
<line x1="98" y1="66" x2="99" y2="67" style="fill:none;stroke:rgb(0,0,0);stroke-linecap:square" />
<text x="101" y="68" style="font:4px Dialog">39,67</text>
<line x1="84" y1="76" x2="85" y2="77" style="fill:none;stroke:rgb(0,0,0);stroke-linecap:square" />
<text x="87" y="78" style="font:4px Dialog">32,62</text>
<line x1="130" y1="58" x2="131" y2="59" style="fill:none;stroke:rgb(0,0,0);stroke-linecap:square" />
<text x="133" y="60" style="font:4px Dialog">55,71</text>
<line x1="90" y1="48" x2="91" y2="49" style="fill:none;stroke:rgb(0,0,0);stroke-linecap:square" />
<text x="93" y="50" style="font:4px Dialog">35,76</text>
<line x1="28" y1="34" x2="29" y2="35" style="fill:none;stroke:rgb(0,0,0);stroke-linecap:square" />
<text x="31" y="36" style="font:4px Dialog">4,83</text>
<line x1="62" y1="114" x2="63" y2="115" style="fill:none;stroke:rgb(0,0,0);stroke-linecap:square" />
<text x="65" y="116" style="font:4px Dialog">21,43</text>
<line x1="154" y1="184" x2="155" y2="185" style="fill:none;stroke:rgb(0,0,0);stroke-linecap:square" />
<text x="157" y="186" style="font:4px Dialog">67,8</text>
<line x1="166" y1="68" x2="167" y2="69" style="fill:none;stroke:rgb(0,0,0);stroke-linecap:square" />
<text x="169" y="70" style="font:4px Dialog">73,66</text>
<line x1="28" y1="136" x2="29" y2="137" style="fill:none;stroke:rgb(0,0,0);stroke-linecap:square" />
<text x="31" y="138" style="font:4px Dialog">4,32</text>
<line x1="158" y1="186" x2="159" y2="187" style="fill:none;stroke:rgb(0,0,0);stroke-linecap:square" />
<text x="161" y="188" style="font:4px Dialog">69,7</text>
<line x1="82" y1="114" x2="83" y2="115" style="fill:none;stroke:rgb(0,0,0);stroke-linecap:square" />
<text x="85" y="116" style="font:4px Dialog">31,43</text>
<line x1="170" y1="154" x2="171" y2="155" style="fill:none;stroke:rgb(0,0,0);stroke-linecap:square" />
<text x="173" y="156" style="font:4px Dialog">75,23</text>
<line x1="136" y1="26" x2="137" y2="27" style="fill:none;stroke:rgb(0,0,0);stroke-linecap:square" />
<text x="139" y="28" style="font:4px Dialog">58,87</text>
<line x1="146" y1="82" x2="147" y2="83" style="fill:none;stroke:rgb(0,0,0);stroke-linecap:square" />
<text x="149" y="84" style="font:4px Dialog">63,59</text>
</svg>
