<?xml version="1.0" encoding="UTF-8"?>
<!DOCTYPE svg PUBLIC "-//W3C//DTD SVG 1.1//EN" "http://www.w3.org/Graphics/SVG/1.1/DTD/svg11.dtd">
<svg version="1.2" xmlns="http://www.w3.org/2000/svg" xmlns:xlink="http://www.w3.org/1999/xlink" x="0mm" y="0mm" width="400mm" height="400mm" viewBox="0 0 400 400">
<style type="text/css"><![CDATA[
text { font:12px Dialog; }
]]></style>
<line x1="20" y1="200" x2="420" y2="200" style="fill:none;stroke:rgb(0,0,0);stroke-linecap:square" />
<line x1="20" y1="200" x2="20" y2="-200" style="fill:none;stroke:rgb(0,0,0);stroke-linecap:square" />
<line x1="20" y1="204" x2="20" y2="196" style="fill:none;stroke:rgb(0,0,0);stroke-linecap:square" />
<line x1="40" y1="204" x2="40" y2="196" style="fill:none;stroke:rgb(0,0,0);stroke-linecap:square" />
<text x="37" y="206" style="font:4px Dialog">10</text>
<line x1="60" y1="204" x2="60" y2="196" style="fill:none;stroke:rgb(0,0,0);stroke-linecap:square" />
<text x="57" y="206" style="font:4px Dialog">20</text>
<line x1="80" y1="204" x2="80" y2="196" style="fill:none;stroke:rgb(0,0,0);stroke-linecap:square" />
<text x="77" y="206" style="font:4px Dialog">30</text>
<line x1="100" y1="204" x2="100" y2="196" style="fill:none;stroke:rgb(0,0,0);stroke-linecap:square" />
<text x="97" y="206" style="font:4px Dialog">40</text>
<line x1="120" y1="204" x2="120" y2="196" style="fill:none;stroke:rgb(0,0,0);stroke-linecap:square" />
<text x="117" y="206" style="font:4px Dialog">50</text>
<line x1="140" y1="204" x2="140" y2="196" style="fill:none;stroke:rgb(0,0,0);stroke-linecap:square" />
<text x="137" y="206" style="font:4px Dialog">60</text>
<line x1="160" y1="204" x2="160" y2="196" style="fill:none;stroke:rgb(0,0,0);stroke-linecap:square" />
<text x="157" y="206" style="font:4px Dialog">70</text>
<line x1="180" y1="204" x2="180" y2="196" style="fill:none;stroke:rgb(0,0,0);stroke-linecap:square" />
<text x="177" y="206" style="font:4px Dialog">80</text>
<line x1="200" y1="204" x2="200" y2="196" style="fill:none;stroke:rgb(0,0,0);stroke-linecap:square" />
<text x="197" y="206" style="font:4px Dialog">90</text>
<line x1="220" y1="204" x2="220" y2="196" style="fill:none;stroke:rgb(0,0,0);stroke-linecap:square" />
<text x="217" y="206" style="font:4px Dialog">100</text>
<line x1="240" y1="204" x2="240" y2="196" style="fill:none;stroke:rgb(0,0,0);stroke-linecap:square" />
<text x="237" y="206" style="font:4px Dialog">110</text>
<line x1="260" y1="204" x2="260" y2="196" style="fill:none;stroke:rgb(0,0,0);stroke-linecap:square" />
<text x="257" y="206" style="font:4px Dialog">120</text>
<line x1="280" y1="204" x2="280" y2="196" style="fill:none;stroke:rgb(0,0,0);stroke-linecap:square" />
<text x="277" y="206" style="font:4px Dialog">130</text>
<line x1="300" y1="204" x2="300" y2="196" style="fill:none;stroke:rgb(0,0,0);stroke-linecap:square" />
<text x="297" y="206" style="font:4px Dialog">140</text>
<line x1="320" y1="204" x2="320" y2="196" style="fill:none;stroke:rgb(0,0,0);stroke-linecap:square" />
<text x="317" y="206" style="font:4px Dialog">150</text>
<line x1="340" y1="204" x2="340" y2="196" style="fill:none;stroke:rgb(0,0,0);stroke-linecap:square" />
<text x="337" y="206" style="font:4px Dialog">160</text>
<line x1="360" y1="204" x2="360" y2="196" style="fill:none;stroke:rgb(0,0,0);stroke-linecap:square" />
<text x="357" y="206" style="font:4px Dialog">170</text>
<line x1="380" y1="204" x2="380" y2="196" style="fill:none;stroke:rgb(0,0,0);stroke-linecap:square" />
<text x="377" y="206" style="font:4px Dialog">180</text>
<line x1="400" y1="204" x2="400" y2="196" style="fill:none;stroke:rgb(0,0,0);stroke-linecap:square" />
<text x="397" y="206" style="font:4px Dialog">190</text>
<line x1="16" y1="200" x2="24" y2="200" style="fill:none;stroke:rgb(0,0,0);stroke-linecap:square" />
<line x1="16" y1="180" x2="24" y2="180" style="fill:none;stroke:rgb(0,0,0);stroke-linecap:square" />
<text x="4" y="182" style="font:4px Dialog">10</text>
<line x1="16" y1="160" x2="24" y2="160" style="fill:none;stroke:rgb(0,0,0);stroke-linecap:square" />
<text x="4" y="162" style="font:4px Dialog">20</text>
<line x1="16" y1="140" x2="24" y2="140" style="fill:none;stroke:rgb(0,0,0);stroke-linecap:square" />
<text x="4" y="142" style="font:4px Dialog">30</text>
<line x1="16" y1="120" x2="24" y2="120" style="fill:none;stroke:rgb(0,0,0);stroke-linecap:square" />
<text x="4" y="122" style="font:4px Dialog">40</text>
<line x1="16" y1="100" x2="24" y2="100" style="fill:none;stroke:rgb(0,0,0);stroke-linecap:square" />
<text x="4" y="102" style="font:4px Dialog">50</text>
<line x1="16" y1="80" x2="24" y2="80" style="fill:none;stroke:rgb(0,0,0);stroke-linecap:square" />
<text x="4" y="82" style="font:4px Dialog">60</text>
<line x1="16" y1="60" x2="24" y2="60" style="fill:none;stroke:rgb(0,0,0);stroke-linecap:square" />
<text x="4" y="62" style="font:4px Dialog">70</text>
<line x1="16" y1="40" x2="24" y2="40" style="fill:none;stroke:rgb(0,0,0);stroke-linecap:square" />
<text x="4" y="42" style="font:4px Dialog">80</text>
<line x1="16" y1="20" x2="24" y2="20" style="fill:none;stroke:rgb(0,0,0);stroke-linecap:square" />
<text x="4" y="22" style="font:4px Dialog">90</text>
<line x1="16" y1="0" x2="24" y2="0" style="fill:none;stroke:rgb(0,0,0);stroke-linecap:square" />
<text x="4" y="2" style="font:4px Dialog">100</text>
<line x1="16" y1="-20" x2="24" y2="-20" style="fill:none;stroke:rgb(0,0,0);stroke-linecap:square" />
<text x="4" y="-18" style="font:4px Dialog">110</text>
<line x1="16" y1="-40" x2="24" y2="-40" style="fill:none;stroke:rgb(0,0,0);stroke-linecap:square" />
<text x="4" y="-38" style="font:4px Dialog">120</text>
<line x1="16" y1="-60" x2="24" y2="-60" style="fill:none;stroke:rgb(0,0,0);stroke-linecap:square" />
<text x="4" y="-58" style="font:4px Dialog">130</text>
<line x1="16" y1="-80" x2="24" y2="-80" style="fill:none;stroke:rgb(0,0,0);stroke-linecap:square" />
<text x="4" y="-78" style="font:4px Dialog">140</text>
<line x1="16" y1="-100" x2="24" y2="-100" style="fill:none;stroke:rgb(0,0,0);stroke-linecap:square" />
<text x="4" y="-98" style="font:4px Dialog">150</text>
<line x1="16" y1="-120" x2="24" y2="-120" style="fill:none;stroke:rgb(0,0,0);stroke-linecap:square" />
<text x="4" y="-118" style="font:4px Dialog">160</text>
<line x1="16" y1="-140" x2="24" y2="-140" style="fill:none;stroke:rgb(0,0,0);stroke-linecap:square" />
<text x="4" y="-138" style="font:4px Dialog">170</text>
<line x1="16" y1="-160" x2="24" y2="-160" style="fill:none;stroke:rgb(0,0,0);stroke-linecap:square" />
<text x="4" y="-158" style="font:4px Dialog">180</text>
<line x1="16" y1="-180" x2="24" y2="-180" style="fill:none;stroke:rgb(0,0,0);stroke-linecap:square" />
<text x="4" y="-178" style="font:4px Dialog">190</text>
<line x1="180" y1="178" x2="181" y2="179" style="fill:none;stroke:rgb(0,0,0);stroke-linecap:square" />
<text x="183" y="180" style="font:4px Dialog">80,11</text>
<line x1="38" y1="112" x2="39" y2="113" style="fill:none;stroke:rgb(0,0,0);stroke-linecap:square" />
<text x="41" y="114" style="font:4px Dialog">9,44</text>
<line x1="116" y1="78" x2="117" y2="79" style="fill:none;stroke:rgb(0,0,0);stroke-linecap:square" />
<text x="119" y="80" style="font:4px Dialog">48,61</text>
<line x1="146" y1="60" x2="147" y2="61" style="fill:none;stroke:rgb(0,0,0);stroke-linecap:square" />
<text x="149" y="62" style="font:4px Dialog">63,70</text>
<line x1="212" y1="54" x2="213" y2="55" style="fill:none;stroke:rgb(0,0,0);stroke-linecap:square" />
<text x="215" y="56" style="font:4px Dialog">96,73</text>
<line x1="44" y1="140" x2="45" y2="141" style="fill:none;stroke:rgb(0,0,0);stroke-linecap:square" />
<text x="47" y="142" style="font:4px Dialog">12,30</text>
<line x1="84" y1="130" x2="85" y2="131" style="fill:none;stroke:rgb(0,0,0);stroke-linecap:square" />
<text x="87" y="132" style="font:4px Dialog">32,35</text>
<line x1="174" y1="92" x2="175" y2="93" style="fill:none;stroke:rgb(0,0,0);stroke-linecap:square" />
<text x="177" y="94" style="font:4px Dialog">77,54</text>
<line x1="52" y1="160" x2="53" y2="161" style="fill:none;stroke:rgb(0,0,0);stroke-linecap:square" />
<text x="55" y="162" style="font:4px Dialog">16,20</text>
<line x1="96" y1="96" x2="97" y2="97" style="fill:none;stroke:rgb(0,0,0);stroke-linecap:square" />
<text x="99" y="98" style="font:4px Dialog">38,52</text>
<line x1="178" y1="148" x2="179" y2="149" style="fill:none;stroke:rgb(0,0,0);stroke-linecap:square" />
<text x="181" y="150" style="font:4px Dialog">79,26</text>
<line x1="196" y1="14" x2="197" y2="15" style="fill:none;stroke:rgb(0,0,0);stroke-linecap:square" />
<text x="199" y="16" style="font:4px Dialog">88,93</text>
<line x1="94" y1="192" x2="95" y2="193" style="fill:none;stroke:rgb(0,0,0);stroke-linecap:square" />
<text x="97" y="194" style="font:4px Dialog">37,4</text>
<line x1="32" y1="128" x2="33" y2="129" style="fill:none;stroke:rgb(0,0,0);stroke-linecap:square" />
<text x="35" y="130" style="font:4px Dialog">6,36</text>
<line x1="54" y1="36" x2="55" y2="37" style="fill:none;stroke:rgb(0,0,0);stroke-linecap:square" />
<text x="57" y="38" style="font:4px Dialog">17,82</text>
<line x1="122" y1="62" x2="123" y2="63" style="fill:none;stroke:rgb(0,0,0);stroke-linecap:square" />
<text x="125" y="64" style="font:4px Dialog">51,69</text>
<line x1="64" y1="138" x2="65" y2="139" style="fill:none;stroke:rgb(0,0,0);stroke-linecap:square" />
<text x="67" y="140" style="font:4px Dialog">22,31</text>
<line x1="34" y1="22" x2="35" y2="23" style="fill:none;stroke:rgb(0,0,0);stroke-linecap:square" />
<text x="37" y="24" style="font:4px Dialog">7,89</text>
<line x1="164" y1="14" x2="165" y2="15" style="fill:none;stroke:rgb(0,0,0);stroke-linecap:square" />
<text x="167" y="16" style="font:4px Dialog">72,93</text>
<line x1="178" y1="156" x2="179" y2="157" style="fill:none;stroke:rgb(0,0,0);stroke-linecap:square" />
<text x="181" y="158" style="font:4px Dialog">79,22</text>
<line x1="160" y1="32" x2="161" y2="33" style="fill:none;stroke:rgb(0,0,0);stroke-linecap:square" />
<text x="163" y="34" style="font:4px Dialog">70,84</text>
<line x1="56" y1="114" x2="57" y2="115" style="fill:none;stroke:rgb(0,0,0);stroke-linecap:square" />
<text x="59" y="116" style="font:4px Dialog">18,43</text>
<line x1="142" y1="146" x2="143" y2="147" style="fill:none;stroke:rgb(0,0,0);stroke-linecap:square" />
<text x="145" y="148" style="font:4px Dialog">61,27</text>
<line x1="48" y1="186" x2="49" y2="187" style="fill:none;stroke:rgb(0,0,0);stroke-linecap:square" />
<text x="51" y="188" style="font:4px Dialog">14,7</text>
<line x1="214" y1="154" x2="215" y2="155" style="fill:none;stroke:rgb(0,0,0);stroke-linecap:square" />
<text x="217" y="156" style="font:4px Dialog">97,23</text>
<line x1="168" y1="178" x2="169" y2="179" style="fill:none;stroke:rgb(0,0,0);stroke-linecap:square" />
<text x="171" y="180" style="font:4px Dialog">74,11</text>
</svg>
