<?xml version="1.0" encoding="UTF-8"?>
<!DOCTYPE svg PUBLIC "-//W3C//DTD SVG 1.1//EN" "http://www.w3.org/Graphics/SVG/1.1/DTD/svg11.dtd">
<svg version="1.2" xmlns="http://www.w3.org/2000/svg" xmlns:xlink="http://www.w3.org/1999/xlink" x="0mm" y="0mm" width="400mm" height="400mm" viewBox="0 0 400 400">
<style type="text/css"><![CDATA[
text { font:12px Dialog; }
]]></style>
<line x1="20" y1="200" x2="420" y2="200" style="fill:none;stroke:rgb(0,0,0);stroke-linecap:square" />
<line x1="20" y1="200" x2="20" y2="-200" style="fill:none;stroke:rgb(0,0,0);stroke-linecap:square" />
<line x1="20" y1="204" x2="20" y2="196" style="fill:none;stroke:rgb(0,0,0);stroke-linecap:square" />
<line x1="40" y1="204" x2="40" y2="196" style="fill:none;stroke:rgb(0,0,0);stroke-linecap:square" />
<text x="37" y="206" style="font:4px Dialog">10</text>
<line x1="60" y1="204" x2="60" y2="196" style="fill:none;stroke:rgb(0,0,0);stroke-linecap:square" />
<text x="57" y="206" style="font:4px Dialog">20</text>
<line x1="80" y1="204" x2="80" y2="196" style="fill:none;stroke:rgb(0,0,0);stroke-linecap:square" />
<text x="77" y="206" style="font:4px Dialog">30</text>
<line x1="100" y1="204" x2="100" y2="196" style="fill:none;stroke:rgb(0,0,0);stroke-linecap:square" />
<text x="97" y="206" style="font:4px Dialog">40</text>
<line x1="120" y1="204" x2="120" y2="196" style="fill:none;stroke:rgb(0,0,0);stroke-linecap:square" />
<text x="117" y="206" style="font:4px Dialog">50</text>
<line x1="140" y1="204" x2="140" y2="196" style="fill:none;stroke:rgb(0,0,0);stroke-linecap:square" />
<text x="137" y="206" style="font:4px Dialog">60</text>
<line x1="160" y1="204" x2="160" y2="196" style="fill:none;stroke:rgb(0,0,0);stroke-linecap:square" />
<text x="157" y="206" style="font:4px Dialog">70</text>
<line x1="180" y1="204" x2="180" y2="196" style="fill:none;stroke:rgb(0,0,0);stroke-linecap:square" />
<text x="177" y="206" style="font:4px Dialog">80</text>
<line x1="200" y1="204" x2="200" y2="196" style="fill:none;stroke:rgb(0,0,0);stroke-linecap:square" />
<text x="197" y="206" style="font:4px Dialog">90</text>
<line x1="220" y1="204" x2="220" y2="196" style="fill:none;stroke:rgb(0,0,0);stroke-linecap:square" />
<text x="217" y="206" style="font:4px Dialog">100</text>
<line x1="240" y1="204" x2="240" y2="196" style="fill:none;stroke:rgb(0,0,0);stroke-linecap:square" />
<text x="237" y="206" style="font:4px Dialog">110</text>
<line x1="260" y1="204" x2="260" y2="196" style="fill:none;stroke:rgb(0,0,0);stroke-linecap:square" />
<text x="257" y="206" style="font:4px Dialog">120</text>
<line x1="280" y1="204" x2="280" y2="196" style="fill:none;stroke:rgb(0,0,0);stroke-linecap:square" />
<text x="277" y="206" style="font:4px Dialog">130</text>
<line x1="300" y1="204" x2="300" y2="196" style="fill:none;stroke:rgb(0,0,0);stroke-linecap:square" />
<text x="297" y="206" style="font:4px Dialog">140</text>
<line x1="320" y1="204" x2="320" y2="196" style="fill:none;stroke:rgb(0,0,0);stroke-linecap:square" />
<text x="317" y="206" style="font:4px Dialog">150</text>
<line x1="340" y1="204" x2="340" y2="196" style="fill:none;stroke:rgb(0,0,0);stroke-linecap:square" />
<text x="337" y="206" style="font:4px Dialog">160</text>
<line x1="360" y1="204" x2="360" y2="196" style="fill:none;stroke:rgb(0,0,0);stroke-linecap:square" />
<text x="357" y="206" style="font:4px Dialog">170</text>
<line x1="380" y1="204" x2="380" y2="196" style="fill:none;stroke:rgb(0,0,0);stroke-linecap:square" />
<text x="377" y="206" style="font:4px Dialog">180</text>
<line x1="400" y1="204" x2="400" y2="196" style="fill:none;stroke:rgb(0,0,0);stroke-linecap:square" />
<text x="397" y="206" style="font:4px Dialog">190</text>
<line x1="16" y1="200" x2="24" y2="200" style="fill:none;stroke:rgb(0,0,0);stroke-linecap:square" />
<line x1="16" y1="180" x2="24" y2="180" style="fill:none;stroke:rgb(0,0,0);stroke-linecap:square" />
<text x="4" y="182" style="font:4px Dialog">10</text>
<line x1="16" y1="160" x2="24" y2="160" style="fill:none;stroke:rgb(0,0,0);stroke-linecap:square" />
<text x="4" y="162" style="font:4px Dialog">20</text>
<line x1="16" y1="140" x2="24" y2="140" style="fill:none;stroke:rgb(0,0,0);stroke-linecap:square" />
<text x="4" y="142" style="font:4px Dialog">30</text>
<line x1="16" y1="120" x2="24" y2="120" style="fill:none;stroke:rgb(0,0,0);stroke-linecap:square" />
<text x="4" y="122" style="font:4px Dialog">40</text>
<line x1="16" y1="100" x2="24" y2="100" style="fill:none;stroke:rgb(0,0,0);stroke-linecap:square" />
<text x="4" y="102" style="font:4px Dialog">50</text>
<line x1="16" y1="80" x2="24" y2="80" style="fill:none;stroke:rgb(0,0,0);stroke-linecap:square" />
<text x="4" y="82" style="font:4px Dialog">60</text>
<line x1="16" y1="60" x2="24" y2="60" style="fill:none;stroke:rgb(0,0,0);stroke-linecap:square" />
<text x="4" y="62" style="font:4px Dialog">70</text>
<line x1="16" y1="40" x2="24" y2="40" style="fill:none;stroke:rgb(0,0,0);stroke-linecap:square" />
<text x="4" y="42" style="font:4px Dialog">80</text>
<line x1="16" y1="20" x2="24" y2="20" style="fill:none;stroke:rgb(0,0,0);stroke-linecap:square" />
<text x="4" y="22" style="font:4px Dialog">90</text>
<line x1="16" y1="0" x2="24" y2="0" style="fill:none;stroke:rgb(0,0,0);stroke-linecap:square" />
<text x="4" y="2" style="font:4px Dialog">100</text>
<line x1="16" y1="-20" x2="24" y2="-20" style="fill:none;stroke:rgb(0,0,0);stroke-linecap:square" />
<text x="4" y="-18" style="font:4px Dialog">110</text>
<line x1="16" y1="-40" x2="24" y2="-40" style="fill:none;stroke:rgb(0,0,0);stroke-linecap:square" />
<text x="4" y="-38" style="font:4px Dialog">120</text>
<line x1="16" y1="-60" x2="24" y2="-60" style="fill:none;stroke:rgb(0,0,0);stroke-linecap:square" />
<text x="4" y="-58" style="font:4px Dialog">130</text>
<line x1="16" y1="-80" x2="24" y2="-80" style="fill:none;stroke:rgb(0,0,0);stroke-linecap:square" />
<text x="4" y="-78" style="font:4px Dialog">140</text>
<line x1="16" y1="-100" x2="24" y2="-100" style="fill:none;stroke:rgb(0,0,0);stroke-linecap:square" />
<text x="4" y="-98" style="font:4px Dialog">150</text>
<line x1="16" y1="-120" x2="24" y2="-120" style="fill:none;stroke:rgb(0,0,0);stroke-linecap:square" />
<text x="4" y="-118" style="font:4px Dialog">160</text>
<line x1="16" y1="-140" x2="24" y2="-140" style="fill:none;stroke:rgb(0,0,0);stroke-linecap:square" />
<text x="4" y="-138" style="font:4px Dialog">170</text>
<line x1="16" y1="-160" x2="24" y2="-160" style="fill:none;stroke:rgb(0,0,0);stroke-linecap:square" />
<text x="4" y="-158" style="font:4px Dialog">180</text>
<line x1="16" y1="-180" x2="24" y2="-180" style="fill:none;stroke:rgb(0,0,0);stroke-linecap:square" />
<text x="4" y="-178" style="font:4px Dialog">190</text>
<line x1="80" y1="136" x2="81" y2="137" style="fill:none;stroke:rgb(0,0,0);stroke-linecap:square" />
<text x="83" y="138" style="font:4px Dialog">30,32</text>
<line x1="166" y1="136" x2="167" y2="137" style="fill:none;stroke:rgb(0,0,0);stroke-linecap:square" />
<text x="169" y="138" style="font:4px Dialog">73,32</text>
<line x1="130" y1="116" x2="131" y2="117" style="fill:none;stroke:rgb(0,0,0);stroke-linecap:square" />
<text x="133" y="118" style="font:4px Dialog">55,42</text>
<line x1="208" y1="36" x2="209" y2="37" style="fill:none;stroke:rgb(0,0,0);stroke-linecap:square" />
<text x="211" y="38" style="font:4px Dialog">94,82</text>
<line x1="112" y1="26" x2="113" y2="27" style="fill:none;stroke:rgb(0,0,0);stroke-linecap:square" />
<text x="115" y="28" style="font:4px Dialog">46,87</text>
<line x1="152" y1="72" x2="153" y2="73" style="fill:none;stroke:rgb(0,0,0);stroke-linecap:square" />
<text x="155" y="74" style="font:4px Dialog">66,64</text>
<line x1="90" y1="106" x2="91" y2="107" style="fill:none;stroke:rgb(0,0,0);stroke-linecap:square" />
<text x="93" y="108" style="font:4px Dialog">35,47</text>
<line x1="78" y1="108" x2="79" y2="109" style="fill:none;stroke:rgb(0,0,0);stroke-linecap:square" />
<text x="81" y="110" style="font:4px Dialog">29,46</text>
<line x1="104" y1="16" x2="105" y2="17" style="fill:none;stroke:rgb(0,0,0);stroke-linecap:square" />
<text x="107" y="18" style="font:4px Dialog">42,92</text>
<line x1="84" y1="54" x2="85" y2="55" style="fill:none;stroke:rgb(0,0,0);stroke-linecap:square" />
<text x="87" y="56" style="font:4px Dialog">32,73</text>
<line x1="162" y1="180" x2="163" y2="181" style="fill:none;stroke:rgb(0,0,0);stroke-linecap:square" />
<text x="165" y="182" style="font:4px Dialog">71,10</text>
<line x1="142" y1="136" x2="143" y2="137" style="fill:none;stroke:rgb(0,0,0);stroke-linecap:square" />
<text x="145" y="138" style="font:4px Dialog">61,32</text>
<line x1="84" y1="190" x2="85" y2="191" style="fill:none;stroke:rgb(0,0,0);stroke-linecap:square" />
<text x="87" y="192" style="font:4px Dialog">32,5</text>
<line x1="32" y1="20" x2="33" y2="21" style="fill:none;stroke:rgb(0,0,0);stroke-linecap:square" />
<text x="35" y="22" style="font:4px Dialog">6,90</text>
<line x1="24" y1="34" x2="25" y2="35" style="fill:none;stroke:rgb(0,0,0);stroke-linecap:square" />
<text x="27" y="36" style="font:4px Dialog">2,83</text>
<line x1="92" y1="176" x2="93" y2="177" style="fill:none;stroke:rgb(0,0,0);stroke-linecap:square" />
<text x="95" y="178" style="font:4px Dialog">36,12</text>
<line x1="110" y1="76" x2="111" y2="77" style="fill:none;stroke:rgb(0,0,0);stroke-linecap:square" />
<text x="113" y="78" style="font:4px Dialog">45,62</text>
<line x1="78" y1="64" x2="79" y2="65" style="fill:none;stroke:rgb(0,0,0);stroke-linecap:square" />
<text x="81" y="66" style="font:4px Dialog">29,68</text>
<line x1="40" y1="104" x2="41" y2="105" style="fill:none;stroke:rgb(0,0,0);stroke-linecap:square" />
<text x="43" y="106" style="font:4px Dialog">10,48</text>
<line x1="60" y1="180" x2="61" y2="181" style="fill:none;stroke:rgb(0,0,0);stroke-linecap:square" />
<text x="63" y="182" style="font:4px Dialog">20,10</text>
<line x1="210" y1="200" x2="211" y2="201" style="fill:none;stroke:rgb(0,0,0);stroke-linecap:square" />
<text x="213" y="202" style="font:4px Dialog">95,0</text>
<line x1="68" y1="70" x2="69" y2="71" style="fill:none;stroke:rgb(0,0,0);stroke-linecap:square" />
<text x="71" y="72" style="font:4px Dialog">24,65</text>
<line x1="138" y1="44" x2="139" y2="45" style="fill:none;stroke:rgb(0,0,0);stroke-linecap:square" />
<text x="141" y="46" style="font:4px Dialog">59,78</text>
<line x1="42" y1="136" x2="43" y2="137" style="fill:none;stroke:rgb(0,0,0);stroke-linecap:square" />
<text x="45" y="138" style="font:4px Dialog">11,32</text>
<line x1="28" y1="34" x2="29" y2="35" style="fill:none;stroke:rgb(0,0,0);stroke-linecap:square" />
<text x="31" y="36" style="font:4px Dialog">4,83</text>
<line x1="64" y1="36" x2="65" y2="37" style="fill:none;stroke:rgb(0,0,0);stroke-linecap:square" />
<text x="67" y="38" style="font:4px Dialog">22,82</text>
<line x1="184" y1="84" x2="185" y2="85" style="fill:none;stroke:rgb(0,0,0);stroke-linecap:square" />
<text x="187" y="86" style="font:4px Dialog">82,58</text>
<line x1="42" y1="120" x2="43" y2="121" style="fill:none;stroke:rgb(0,0,0);stroke-linecap:square" />
<text x="45" y="122" style="font:4px Dialog">11,40</text>
<line x1="116" y1="94" x2="117" y2="95" style="fill:none;stroke:rgb(0,0,0);stroke-linecap:square" />
<text x="119" y="96" style="font:4px Dialog">48,53</text>
<line x1="114" y1="112" x2="115" y2="113" style="fill:none;stroke:rgb(0,0,0);stroke-linecap:square" />
<text x="117" y="114" style="font:4px Dialog">47,44</text>
<line x1="114" y1="188" x2="115" y2="189" style="fill:none;stroke:rgb(0,0,0);stroke-linecap:square" />
<text x="117" y="190" style="font:4px Dialog">47,6</text>
<line x1="212" y1="78" x2="213" y2="79" style="fill:none;stroke:rgb(0,0,0);stroke-linecap:square" />
<text x="215" y="80" style="font:4px Dialog">96,61</text>
<line x1="128" y1="72" x2="129" y2="73" style="fill:none;stroke:rgb(0,0,0);stroke-linecap:square" />
<text x="131" y="74" style="font:4px Dialog">54,64</text>
<line x1="154" y1="138" x2="155" y2="139" style="fill:none;stroke:rgb(0,0,0);stroke-linecap:square" />
<text x="157" y="140" style="font:4px Dialog">67,31</text>
<line x1="206" y1="62" x2="207" y2="63" style="fill:none;stroke:rgb(0,0,0);stroke-linecap:square" />
<text x="209" y="64" style="font:4px Dialog">93,69</text>
<line x1="194" y1="60" x2="195" y2="61" style="fill:none;stroke:rgb(0,0,0);stroke-linecap:square" />
<text x="197" y="62" style="font:4px Dialog">87,70</text>
<line x1="168" y1="30" x2="169" y2="31" style="fill:none;stroke:rgb(0,0,0);stroke-linecap:square" />
<text x="171" y="32" style="font:4px Dialog">74,85</text>
<line x1="130" y1="28" x2="131" y2="29" style="fill:none;stroke:rgb(0,0,0);stroke-linecap:square" />
<text x="133" y="30" style="font:4px Dialog">55,86</text>
<line x1="40" y1="54" x2="41" y2="55" style="fill:none;stroke:rgb(0,0,0);stroke-linecap:square" />
<text x="43" y="56" style="font:4px Dialog">10,73</text>
<line x1="216" y1="48" x2="217" y2="49" style="fill:none;stroke:rgb(0,0,0);stroke-linecap:square" />
<text x="219" y="50" style="font:4px Dialog">98,76</text>
<line x1="36" y1="96" x2="37" y2="97" style="fill:none;stroke:rgb(0,0,0);stroke-linecap:square" />
<text x="39" y="98" style="font:4px Dialog">8,52</text>
<line x1="116" y1="46" x2="117" y2="47" style="fill:none;stroke:rgb(0,0,0);stroke-linecap:square" />
<text x="119" y="48" style="font:4px Dialog">48,77</text>
<line x1="72" y1="106" x2="73" y2="107" style="fill:none;stroke:rgb(0,0,0);stroke-linecap:square" />
<text x="75" y="108" style="font:4px Dialog">26,47</text>
<line x1="108" y1="8" x2="109" y2="9" style="fill:none;stroke:rgb(0,0,0);stroke-linecap:square" />
<text x="111" y="10" style="font:4px Dialog">44,96</text>
<line x1="140" y1="140" x2="141" y2="141" style="fill:none;stroke:rgb(0,0,0);stroke-linecap:square" />
<text x="143" y="142" style="font:4px Dialog">60,30</text>
<line x1="156" y1="28" x2="157" y2="29" style="fill:none;stroke:rgb(0,0,0);stroke-linecap:square" />
<text x="159" y="30" style="font:4px Dialog">68,86</text>
<line x1="38" y1="54" x2="39" y2="55" style="fill:none;stroke:rgb(0,0,0);stroke-linecap:square" />
<text x="41" y="56" style="font:4px Dialog">9,73</text>
<line x1="206" y1="186" x2="207" y2="187" style="fill:none;stroke:rgb(0,0,0);stroke-linecap:square" />
<text x="209" y="188" style="font:4px Dialog">93,7</text>
<line x1="102" y1="188" x2="103" y2="189" style="fill:none;stroke:rgb(0,0,0);stroke-linecap:square" />
<text x="105" y="190" style="font:4px Dialog">41,6</text>
<line x1="124" y1="144" x2="125" y2="145" style="fill:none;stroke:rgb(0,0,0);stroke-linecap:square" />
<text x="127" y="146" style="font:4px Dialog">52,28</text>
<line x1="28" y1="184" x2="29" y2="185" style="fill:none;stroke:rgb(0,0,0);stroke-linecap:square" />
<text x="31" y="186" style="font:4px Dialog">4,8</text>
<line x1="64" y1="188" x2="65" y2="189" style="fill:none;stroke:rgb(0,0,0);stroke-linecap:square" />
<text x="67" y="190" style="font:4px Dialog">22,6</text>
<line x1="128" y1="154" x2="129" y2="155" style="fill:none;stroke:rgb(0,0,0);stroke-linecap:square" />
<text x="131" y="156" style="font:4px Dialog">54,23</text>
<line x1="52" y1="90" x2="53" y2="91" style="fill:none;stroke:rgb(0,0,0);stroke-linecap:square" />
<text x="55" y="92" style="font:4px Dialog">16,55</text>
<line x1="136" y1="32" x2="137" y2="33" style="fill:none;stroke:rgb(0,0,0);stroke-linecap:square" />
<text x="139" y="34" style="font:4px Dialog">58,84</text>
<line x1="48" y1="176" x2="49" y2="177" style="fill:none;stroke:rgb(0,0,0);stroke-linecap:square" />
<text x="51" y="178" style="font:4px Dialog">14,12</text>
<line x1="70" y1="154" x2="71" y2="155" style="fill:none;stroke:rgb(0,0,0);stroke-linecap:square" />
<text x="73" y="156" style="font:4px Dialog">25,23</text>
<line x1="86" y1="26" x2="87" y2="27" style="fill:none;stroke:rgb(0,0,0);stroke-linecap:square" />
<text x="89" y="28" style="font:4px Dialog">33,87</text>
<line x1="38" y1="196" x2="39" y2="197" style="fill:none;stroke:rgb(0,0,0);stroke-linecap:square" />
<text x="41" y="198" style="font:4px Dialog">9,2</text>
<line x1="200" y1="200" x2="201" y2="201" style="fill:none;stroke:rgb(0,0,0);stroke-linecap:square" />
<text x="203" y="202" style="font:4px Dialog">90,0</text>
<line x1="166" y1="62" x2="167" y2="63" style="fill:none;stroke:rgb(0,0,0);stroke-linecap:square" />
<text x="169" y="64" style="font:4px Dialog">73,69</text>
<line x1="48" y1="72" x2="49" y2="73" style="fill:none;stroke:rgb(0,0,0);stroke-linecap:square" />
<text x="51" y="74" style="font:4px Dialog">14,64</text>
<line x1="92" y1="108" x2="93" y2="109" style="fill:none;stroke:rgb(0,0,0);stroke-linecap:square" />
<text x="95" y="110" style="font:4px Dialog">36,46</text>
<line x1="160" y1="110" x2="161" y2="111" style="fill:none;stroke:rgb(0,0,0);stroke-linecap:square" />
<text x="163" y="112" style="font:4px Dialog">70,45</text>
<line x1="74" y1="84" x2="75" y2="85" style="fill:none;stroke:rgb(0,0,0);stroke-linecap:square" />
<text x="77" y="86" style="font:4px Dialog">27,58</text>
<line x1="50" y1="158" x2="51" y2="159" style="fill:none;stroke:rgb(0,0,0);stroke-linecap:square" />
<text x="53" y="160" style="font:4px Dialog">15,21</text>
<line x1="214" y1="186" x2="215" y2="187" style="fill:none;stroke:rgb(0,0,0);stroke-linecap:square" />
<text x="217" y="188" style="font:4px Dialog">97,7</text>
<line x1="30" y1="162" x2="31" y2="163" style="fill:none;stroke:rgb(0,0,0);stroke-linecap:square" />
<text x="33" y="164" style="font:4px Dialog">5,19</text>
</svg>
