<?xml version="1.0" encoding="UTF-8"?>
<!DOCTYPE svg PUBLIC "-//W3C//DTD SVG 1.1//EN" "http://www.w3.org/Graphics/SVG/1.1/DTD/svg11.dtd">
<svg version="1.2" xmlns="http://www.w3.org/2000/svg" xmlns:xlink="http://www.w3.org/1999/xlink" x="0mm" y="0mm" width="400mm" height="400mm" viewBox="0 0 400 400">
<style type="text/css"><![CDATA[
text { font:12px Dialog; }
]]></style>
<line x1="20" y1="200" x2="420" y2="200" style="fill:none;stroke:rgb(0,0,0);stroke-linecap:square" />
<line x1="20" y1="200" x2="20" y2="-200" style="fill:none;stroke:rgb(0,0,0);stroke-linecap:square" />
<line x1="20" y1="204" x2="20" y2="196" style="fill:none;stroke:rgb(0,0,0);stroke-linecap:square" />
<line x1="40" y1="204" x2="40" y2="196" style="fill:none;stroke:rgb(0,0,0);stroke-linecap:square" />
<text x="37" y="206" style="font:4px Dialog">10</text>
<line x1="60" y1="204" x2="60" y2="196" style="fill:none;stroke:rgb(0,0,0);stroke-linecap:square" />
<text x="57" y="206" style="font:4px Dialog">20</text>
<line x1="80" y1="204" x2="80" y2="196" style="fill:none;stroke:rgb(0,0,0);stroke-linecap:square" />
<text x="77" y="206" style="font:4px Dialog">30</text>
<line x1="100" y1="204" x2="100" y2="196" style="fill:none;stroke:rgb(0,0,0);stroke-linecap:square" />
<text x="97" y="206" style="font:4px Dialog">40</text>
<line x1="120" y1="204" x2="120" y2="196" style="fill:none;stroke:rgb(0,0,0);stroke-linecap:square" />
<text x="117" y="206" style="font:4px Dialog">50</text>
<line x1="140" y1="204" x2="140" y2="196" style="fill:none;stroke:rgb(0,0,0);stroke-linecap:square" />
<text x="137" y="206" style="font:4px Dialog">60</text>
<line x1="160" y1="204" x2="160" y2="196" style="fill:none;stroke:rgb(0,0,0);stroke-linecap:square" />
<text x="157" y="206" style="font:4px Dialog">70</text>
<line x1="180" y1="204" x2="180" y2="196" style="fill:none;stroke:rgb(0,0,0);stroke-linecap:square" />
<text x="177" y="206" style="font:4px Dialog">80</text>
<line x1="200" y1="204" x2="200" y2="196" style="fill:none;stroke:rgb(0,0,0);stroke-linecap:square" />
<text x="197" y="206" style="font:4px Dialog">90</text>
<line x1="220" y1="204" x2="220" y2="196" style="fill:none;stroke:rgb(0,0,0);stroke-linecap:square" />
<text x="217" y="206" style="font:4px Dialog">100</text>
<line x1="240" y1="204" x2="240" y2="196" style="fill:none;stroke:rgb(0,0,0);stroke-linecap:square" />
<text x="237" y="206" style="font:4px Dialog">110</text>
<line x1="260" y1="204" x2="260" y2="196" style="fill:none;stroke:rgb(0,0,0);stroke-linecap:square" />
<text x="257" y="206" style="font:4px Dialog">120</text>
<line x1="280" y1="204" x2="280" y2="196" style="fill:none;stroke:rgb(0,0,0);stroke-linecap:square" />
<text x="277" y="206" style="font:4px Dialog">130</text>
<line x1="300" y1="204" x2="300" y2="196" style="fill:none;stroke:rgb(0,0,0);stroke-linecap:square" />
<text x="297" y="206" style="font:4px Dialog">140</text>
<line x1="320" y1="204" x2="320" y2="196" style="fill:none;stroke:rgb(0,0,0);stroke-linecap:square" />
<text x="317" y="206" style="font:4px Dialog">150</text>
<line x1="340" y1="204" x2="340" y2="196" style="fill:none;stroke:rgb(0,0,0);stroke-linecap:square" />
<text x="337" y="206" style="font:4px Dialog">160</text>
<line x1="360" y1="204" x2="360" y2="196" style="fill:none;stroke:rgb(0,0,0);stroke-linecap:square" />
<text x="357" y="206" style="font:4px Dialog">170</text>
<line x1="380" y1="204" x2="380" y2="196" style="fill:none;stroke:rgb(0,0,0);stroke-linecap:square" />
<text x="377" y="206" style="font:4px Dialog">180</text>
<line x1="400" y1="204" x2="400" y2="196" style="fill:none;stroke:rgb(0,0,0);stroke-linecap:square" />
<text x="397" y="206" style="font:4px Dialog">190</text>
<line x1="16" y1="200" x2="24" y2="200" style="fill:none;stroke:rgb(0,0,0);stroke-linecap:square" />
<line x1="16" y1="180" x2="24" y2="180" style="fill:none;stroke:rgb(0,0,0);stroke-linecap:square" />
<text x="4" y="182" style="font:4px Dialog">10</text>
<line x1="16" y1="160" x2="24" y2="160" style="fill:none;stroke:rgb(0,0,0);stroke-linecap:square" />
<text x="4" y="162" style="font:4px Dialog">20</text>
<line x1="16" y1="140" x2="24" y2="140" style="fill:none;stroke:rgb(0,0,0);stroke-linecap:square" />
<text x="4" y="142" style="font:4px Dialog">30</text>
<line x1="16" y1="120" x2="24" y2="120" style="fill:none;stroke:rgb(0,0,0);stroke-linecap:square" />
<text x="4" y="122" style="font:4px Dialog">40</text>
<line x1="16" y1="100" x2="24" y2="100" style="fill:none;stroke:rgb(0,0,0);stroke-linecap:square" />
<text x="4" y="102" style="font:4px Dialog">50</text>
<line x1="16" y1="80" x2="24" y2="80" style="fill:none;stroke:rgb(0,0,0);stroke-linecap:square" />
<text x="4" y="82" style="font:4px Dialog">60</text>
<line x1="16" y1="60" x2="24" y2="60" style="fill:none;stroke:rgb(0,0,0);stroke-linecap:square" />
<text x="4" y="62" style="font:4px Dialog">70</text>
<line x1="16" y1="40" x2="24" y2="40" style="fill:none;stroke:rgb(0,0,0);stroke-linecap:square" />
<text x="4" y="42" style="font:4px Dialog">80</text>
<line x1="16" y1="20" x2="24" y2="20" style="fill:none;stroke:rgb(0,0,0);stroke-linecap:square" />
<text x="4" y="22" style="font:4px Dialog">90</text>
<line x1="16" y1="0" x2="24" y2="0" style="fill:none;stroke:rgb(0,0,0);stroke-linecap:square" />
<text x="4" y="2" style="font:4px Dialog">100</text>
<line x1="16" y1="-20" x2="24" y2="-20" style="fill:none;stroke:rgb(0,0,0);stroke-linecap:square" />
<text x="4" y="-18" style="font:4px Dialog">110</text>
<line x1="16" y1="-40" x2="24" y2="-40" style="fill:none;stroke:rgb(0,0,0);stroke-linecap:square" />
<text x="4" y="-38" style="font:4px Dialog">120</text>
<line x1="16" y1="-60" x2="24" y2="-60" style="fill:none;stroke:rgb(0,0,0);stroke-linecap:square" />
<text x="4" y="-58" style="font:4px Dialog">130</text>
<line x1="16" y1="-80" x2="24" y2="-80" style="fill:none;stroke:rgb(0,0,0);stroke-linecap:square" />
<text x="4" y="-78" style="font:4px Dialog">140</text>
<line x1="16" y1="-100" x2="24" y2="-100" style="fill:none;stroke:rgb(0,0,0);stroke-linecap:square" />
<text x="4" y="-98" style="font:4px Dialog">150</text>
<line x1="16" y1="-120" x2="24" y2="-120" style="fill:none;stroke:rgb(0,0,0);stroke-linecap:square" />
<text x="4" y="-118" style="font:4px Dialog">160</text>
<line x1="16" y1="-140" x2="24" y2="-140" style="fill:none;stroke:rgb(0,0,0);stroke-linecap:square" />
<text x="4" y="-138" style="font:4px Dialog">170</text>
<line x1="16" y1="-160" x2="24" y2="-160" style="fill:none;stroke:rgb(0,0,0);stroke-linecap:square" />
<text x="4" y="-158" style="font:4px Dialog">180</text>
<line x1="16" y1="-180" x2="24" y2="-180" style="fill:none;stroke:rgb(0,0,0);stroke-linecap:square" />
<text x="4" y="-178" style="font:4px Dialog">190</text>
<line x1="92" y1="138" x2="93" y2="139" style="fill:none;stroke:rgb(0,0,0);stroke-linecap:square" />
<text x="95" y="140" style="font:4px Dialog">36,31</text>
<line x1="100" y1="106" x2="101" y2="107" style="fill:none;stroke:rgb(0,0,0);stroke-linecap:square" />
<text x="103" y="108" style="font:4px Dialog">40,47</text>
<line x1="96" y1="116" x2="97" y2="117" style="fill:none;stroke:rgb(0,0,0);stroke-linecap:square" />
<text x="99" y="118" style="font:4px Dialog">38,42</text>
<line x1="172" y1="132" x2="173" y2="133" style="fill:none;stroke:rgb(0,0,0);stroke-linecap:square" />
<text x="175" y="134" style="font:4px Dialog">76,34</text>
<line x1="22" y1="8" x2="23" y2="9" style="fill:none;stroke:rgb(0,0,0);stroke-linecap:square" />
<text x="25" y="10" style="font:4px Dialog">1,96</text>
<line x1="66" y1="160" x2="67" y2="161" style="fill:none;stroke:rgb(0,0,0);stroke-linecap:square" />
<text x="69" y="162" style="font:4px Dialog">23,20</text>
<line x1="72" y1="32" x2="73" y2="33" style="fill:none;stroke:rgb(0,0,0);stroke-linecap:square" />
<text x="75" y="34" style="font:4px Dialog">26,84</text>
<line x1="80" y1="136" x2="81" y2="137" style="fill:none;stroke:rgb(0,0,0);stroke-linecap:square" />
<text x="83" y="138" style="font:4px Dialog">30,32</text>
<line x1="52" y1="14" x2="53" y2="15" style="fill:none;stroke:rgb(0,0,0);stroke-linecap:square" />
<text x="55" y="16" style="font:4px Dialog">16,93</text>
<line x1="60" y1="52" x2="61" y2="53" style="fill:none;stroke:rgb(0,0,0);stroke-linecap:square" />
<text x="63" y="54" style="font:4px Dialog">20,74</text>
<line x1="174" y1="100" x2="175" y2="101" style="fill:none;stroke:rgb(0,0,0);stroke-linecap:square" />
<text x="177" y="102" style="font:4px Dialog">77,50</text>
<line x1="172" y1="154" x2="173" y2="155" style="fill:none;stroke:rgb(0,0,0);stroke-linecap:square" />
<text x="175" y="156" style="font:4px Dialog">76,23</text>
<line x1="178" y1="56" x2="179" y2="57" style="fill:none;stroke:rgb(0,0,0);stroke-linecap:square" />
<text x="181" y="58" style="font:4px Dialog">79,72</text>
<line x1="166" y1="140" x2="167" y2="141" style="fill:none;stroke:rgb(0,0,0);stroke-linecap:square" />
<text x="169" y="142" style="font:4px Dialog">73,30</text>
<line x1="154" y1="174" x2="155" y2="175" style="fill:none;stroke:rgb(0,0,0);stroke-linecap:square" />
<text x="157" y="176" style="font:4px Dialog">67,13</text>
<line x1="186" y1="32" x2="187" y2="33" style="fill:none;stroke:rgb(0,0,0);stroke-linecap:square" />
<text x="189" y="34" style="font:4px Dialog">83,84</text>
<line x1="52" y1="94" x2="53" y2="95" style="fill:none;stroke:rgb(0,0,0);stroke-linecap:square" />
<text x="55" y="96" style="font:4px Dialog">16,53</text>
<line x1="174" y1="126" x2="175" y2="127" style="fill:none;stroke:rgb(0,0,0);stroke-linecap:square" />
<text x="177" y="128" style="font:4px Dialog">77,37</text>
<line x1="74" y1="94" x2="75" y2="95" style="fill:none;stroke:rgb(0,0,0);stroke-linecap:square" />
<text x="77" y="96" style="font:4px Dialog">27,53</text>
<line x1="58" y1="184" x2="59" y2="185" style="fill:none;stroke:rgb(0,0,0);stroke-linecap:square" />
<text x="61" y="186" style="font:4px Dialog">19,8</text>
<line x1="60" y1="126" x2="61" y2="127" style="fill:none;stroke:rgb(0,0,0);stroke-linecap:square" />
<text x="63" y="128" style="font:4px Dialog">20,37</text>
<line x1="156" y1="16" x2="157" y2="17" style="fill:none;stroke:rgb(0,0,0);stroke-linecap:square" />
<text x="159" y="18" style="font:4px Dialog">68,92</text>
<line x1="50" y1="106" x2="51" y2="107" style="fill:none;stroke:rgb(0,0,0);stroke-linecap:square" />
<text x="53" y="108" style="font:4px Dialog">15,47</text>
<line x1="158" y1="178" x2="159" y2="179" style="fill:none;stroke:rgb(0,0,0);stroke-linecap:square" />
<text x="161" y="180" style="font:4px Dialog">69,11</text>
<line x1="114" y1="10" x2="115" y2="11" style="fill:none;stroke:rgb(0,0,0);stroke-linecap:square" />
<text x="117" y="12" style="font:4px Dialog">47,95</text>
<line x1="126" y1="156" x2="127" y2="157" style="fill:none;stroke:rgb(0,0,0);stroke-linecap:square" />
<text x="129" y="158" style="font:4px Dialog">53,22</text>
<line x1="64" y1="10" x2="65" y2="11" style="fill:none;stroke:rgb(0,0,0);stroke-linecap:square" />
<text x="67" y="12" style="font:4px Dialog">22,95</text>
<line x1="40" y1="74" x2="41" y2="75" style="fill:none;stroke:rgb(0,0,0);stroke-linecap:square" />
<text x="43" y="76" style="font:4px Dialog">10,63</text>
<line x1="90" y1="126" x2="91" y2="127" style="fill:none;stroke:rgb(0,0,0);stroke-linecap:square" />
<text x="93" y="128" style="font:4px Dialog">35,37</text>
<line x1="34" y1="30" x2="35" y2="31" style="fill:none;stroke:rgb(0,0,0);stroke-linecap:square" />
<text x="37" y="32" style="font:4px Dialog">7,85</text>
<line x1="28" y1="88" x2="29" y2="89" style="fill:none;stroke:rgb(0,0,0);stroke-linecap:square" />
<text x="31" y="90" style="font:4px Dialog">4,56</text>
<line x1="162" y1="58" x2="163" y2="59" style="fill:none;stroke:rgb(0,0,0);stroke-linecap:square" />
<text x="165" y="60" style="font:4px Dialog">71,71</text>
<line x1="86" y1="136" x2="87" y2="137" style="fill:none;stroke:rgb(0,0,0);stroke-linecap:square" />
<text x="89" y="138" style="font:4px Dialog">33,32</text>
<line x1="198" y1="112" x2="199" y2="113" style="fill:none;stroke:rgb(0,0,0);stroke-linecap:square" />
<text x="201" y="114" style="font:4px Dialog">89,44</text>
<line x1="44" y1="146" x2="45" y2="147" style="fill:none;stroke:rgb(0,0,0);stroke-linecap:square" />
<text x="47" y="148" style="font:4px Dialog">12,27</text>
<line x1="92" y1="176" x2="93" y2="177" style="fill:none;stroke:rgb(0,0,0);stroke-linecap:square" />
<text x="95" y="178" style="font:4px Dialog">36,12</text>
<line x1="140" y1="64" x2="141" y2="65" style="fill:none;stroke:rgb(0,0,0);stroke-linecap:square" />
<text x="143" y="66" style="font:4px Dialog">60,68</text>
<line x1="92" y1="200" x2="93" y2="201" style="fill:none;stroke:rgb(0,0,0);stroke-linecap:square" />
<text x="95" y="202" style="font:4px Dialog">36,0</text>
<line x1="200" y1="10" x2="201" y2="11" style="fill:none;stroke:rgb(0,0,0);stroke-linecap:square" />
<text x="203" y="12" style="font:4px Dialog">90,95</text>
<line x1="200" y1="12" x2="201" y2="13" style="fill:none;stroke:rgb(0,0,0);stroke-linecap:square" />
<text x="203" y="14" style="font:4px Dialog">90,94</text>
<line x1="86" y1="126" x2="87" y2="127" style="fill:none;stroke:rgb(0,0,0);stroke-linecap:square" />
<text x="89" y="128" style="font:4px Dialog">33,37</text>
<line x1="120" y1="6" x2="121" y2="7" style="fill:none;stroke:rgb(0,0,0);stroke-linecap:square" />
<text x="123" y="8" style="font:4px Dialog">50,97</text>
<line x1="126" y1="94" x2="127" y2="95" style="fill:none;stroke:rgb(0,0,0);stroke-linecap:square" />
<text x="129" y="96" style="font:4px Dialog">53,53</text>
<line x1="212" y1="6" x2="213" y2="7" style="fill:none;stroke:rgb(0,0,0);stroke-linecap:square" />
<text x="215" y="8" style="font:4px Dialog">96,97</text>
<line x1="86" y1="6" x2="87" y2="7" style="fill:none;stroke:rgb(0,0,0);stroke-linecap:square" />
<text x="89" y="8" style="font:4px Dialog">33,97</text>
</svg>
