<?xml version="1.0" encoding="UTF-8"?>
<!DOCTYPE svg PUBLIC "-//W3C//DTD SVG 1.1//EN" "http://www.w3.org/Graphics/SVG/1.1/DTD/svg11.dtd">
<svg version="1.2" xmlns="http://www.w3.org/2000/svg" xmlns:xlink="http://www.w3.org/1999/xlink" x="0mm" y="0mm" width="400mm" height="400mm" viewBox="0 0 400 400">
<style type="text/css"><![CDATA[
text { font:12px Dialog; }
]]></style>
<line x1="20" y1="200" x2="420" y2="200" style="fill:none;stroke:rgb(0,0,0);stroke-linecap:square" />
<line x1="20" y1="200" x2="20" y2="-200" style="fill:none;stroke:rgb(0,0,0);stroke-linecap:square" />
<line x1="20" y1="204" x2="20" y2="196" style="fill:none;stroke:rgb(0,0,0);stroke-linecap:square" />
<line x1="40" y1="204" x2="40" y2="196" style="fill:none;stroke:rgb(0,0,0);stroke-linecap:square" />
<text x="37" y="206" style="font:4px Dialog">10</text>
<line x1="60" y1="204" x2="60" y2="196" style="fill:none;stroke:rgb(0,0,0);stroke-linecap:square" />
<text x="57" y="206" style="font:4px Dialog">20</text>
<line x1="80" y1="204" x2="80" y2="196" style="fill:none;stroke:rgb(0,0,0);stroke-linecap:square" />
<text x="77" y="206" style="font:4px Dialog">30</text>
<line x1="100" y1="204" x2="100" y2="196" style="fill:none;stroke:rgb(0,0,0);stroke-linecap:square" />
<text x="97" y="206" style="font:4px Dialog">40</text>
<line x1="120" y1="204" x2="120" y2="196" style="fill:none;stroke:rgb(0,0,0);stroke-linecap:square" />
<text x="117" y="206" style="font:4px Dialog">50</text>
<line x1="140" y1="204" x2="140" y2="196" style="fill:none;stroke:rgb(0,0,0);stroke-linecap:square" />
<text x="137" y="206" style="font:4px Dialog">60</text>
<line x1="160" y1="204" x2="160" y2="196" style="fill:none;stroke:rgb(0,0,0);stroke-linecap:square" />
<text x="157" y="206" style="font:4px Dialog">70</text>
<line x1="180" y1="204" x2="180" y2="196" style="fill:none;stroke:rgb(0,0,0);stroke-linecap:square" />
<text x="177" y="206" style="font:4px Dialog">80</text>
<line x1="200" y1="204" x2="200" y2="196" style="fill:none;stroke:rgb(0,0,0);stroke-linecap:square" />
<text x="197" y="206" style="font:4px Dialog">90</text>
<line x1="220" y1="204" x2="220" y2="196" style="fill:none;stroke:rgb(0,0,0);stroke-linecap:square" />
<text x="217" y="206" style="font:4px Dialog">100</text>
<line x1="240" y1="204" x2="240" y2="196" style="fill:none;stroke:rgb(0,0,0);stroke-linecap:square" />
<text x="237" y="206" style="font:4px Dialog">110</text>
<line x1="260" y1="204" x2="260" y2="196" style="fill:none;stroke:rgb(0,0,0);stroke-linecap:square" />
<text x="257" y="206" style="font:4px Dialog">120</text>
<line x1="280" y1="204" x2="280" y2="196" style="fill:none;stroke:rgb(0,0,0);stroke-linecap:square" />
<text x="277" y="206" style="font:4px Dialog">130</text>
<line x1="300" y1="204" x2="300" y2="196" style="fill:none;stroke:rgb(0,0,0);stroke-linecap:square" />
<text x="297" y="206" style="font:4px Dialog">140</text>
<line x1="320" y1="204" x2="320" y2="196" style="fill:none;stroke:rgb(0,0,0);stroke-linecap:square" />
<text x="317" y="206" style="font:4px Dialog">150</text>
<line x1="340" y1="204" x2="340" y2="196" style="fill:none;stroke:rgb(0,0,0);stroke-linecap:square" />
<text x="337" y="206" style="font:4px Dialog">160</text>
<line x1="360" y1="204" x2="360" y2="196" style="fill:none;stroke:rgb(0,0,0);stroke-linecap:square" />
<text x="357" y="206" style="font:4px Dialog">170</text>
<line x1="380" y1="204" x2="380" y2="196" style="fill:none;stroke:rgb(0,0,0);stroke-linecap:square" />
<text x="377" y="206" style="font:4px Dialog">180</text>
<line x1="400" y1="204" x2="400" y2="196" style="fill:none;stroke:rgb(0,0,0);stroke-linecap:square" />
<text x="397" y="206" style="font:4px Dialog">190</text>
<line x1="16" y1="200" x2="24" y2="200" style="fill:none;stroke:rgb(0,0,0);stroke-linecap:square" />
<line x1="16" y1="180" x2="24" y2="180" style="fill:none;stroke:rgb(0,0,0);stroke-linecap:square" />
<text x="4" y="182" style="font:4px Dialog">10</text>
<line x1="16" y1="160" x2="24" y2="160" style="fill:none;stroke:rgb(0,0,0);stroke-linecap:square" />
<text x="4" y="162" style="font:4px Dialog">20</text>
<line x1="16" y1="140" x2="24" y2="140" style="fill:none;stroke:rgb(0,0,0);stroke-linecap:square" />
<text x="4" y="142" style="font:4px Dialog">30</text>
<line x1="16" y1="120" x2="24" y2="120" style="fill:none;stroke:rgb(0,0,0);stroke-linecap:square" />
<text x="4" y="122" style="font:4px Dialog">40</text>
<line x1="16" y1="100" x2="24" y2="100" style="fill:none;stroke:rgb(0,0,0);stroke-linecap:square" />
<text x="4" y="102" style="font:4px Dialog">50</text>
<line x1="16" y1="80" x2="24" y2="80" style="fill:none;stroke:rgb(0,0,0);stroke-linecap:square" />
<text x="4" y="82" style="font:4px Dialog">60</text>
<line x1="16" y1="60" x2="24" y2="60" style="fill:none;stroke:rgb(0,0,0);stroke-linecap:square" />
<text x="4" y="62" style="font:4px Dialog">70</text>
<line x1="16" y1="40" x2="24" y2="40" style="fill:none;stroke:rgb(0,0,0);stroke-linecap:square" />
<text x="4" y="42" style="font:4px Dialog">80</text>
<line x1="16" y1="20" x2="24" y2="20" style="fill:none;stroke:rgb(0,0,0);stroke-linecap:square" />
<text x="4" y="22" style="font:4px Dialog">90</text>
<line x1="16" y1="0" x2="24" y2="0" style="fill:none;stroke:rgb(0,0,0);stroke-linecap:square" />
<text x="4" y="2" style="font:4px Dialog">100</text>
<line x1="16" y1="-20" x2="24" y2="-20" style="fill:none;stroke:rgb(0,0,0);stroke-linecap:square" />
<text x="4" y="-18" style="font:4px Dialog">110</text>
<line x1="16" y1="-40" x2="24" y2="-40" style="fill:none;stroke:rgb(0,0,0);stroke-linecap:square" />
<text x="4" y="-38" style="font:4px Dialog">120</text>
<line x1="16" y1="-60" x2="24" y2="-60" style="fill:none;stroke:rgb(0,0,0);stroke-linecap:square" />
<text x="4" y="-58" style="font:4px Dialog">130</text>
<line x1="16" y1="-80" x2="24" y2="-80" style="fill:none;stroke:rgb(0,0,0);stroke-linecap:square" />
<text x="4" y="-78" style="font:4px Dialog">140</text>
<line x1="16" y1="-100" x2="24" y2="-100" style="fill:none;stroke:rgb(0,0,0);stroke-linecap:square" />
<text x="4" y="-98" style="font:4px Dialog">150</text>
<line x1="16" y1="-120" x2="24" y2="-120" style="fill:none;stroke:rgb(0,0,0);stroke-linecap:square" />
<text x="4" y="-118" style="font:4px Dialog">160</text>
<line x1="16" y1="-140" x2="24" y2="-140" style="fill:none;stroke:rgb(0,0,0);stroke-linecap:square" />
<text x="4" y="-138" style="font:4px Dialog">170</text>
<line x1="16" y1="-160" x2="24" y2="-160" style="fill:none;stroke:rgb(0,0,0);stroke-linecap:square" />
<text x="4" y="-158" style="font:4px Dialog">180</text>
<line x1="16" y1="-180" x2="24" y2="-180" style="fill:none;stroke:rgb(0,0,0);stroke-linecap:square" />
<text x="4" y="-178" style="font:4px Dialog">190</text>
<line x1="146" y1="48" x2="147" y2="49" style="fill:none;stroke:rgb(0,0,0);stroke-linecap:square" />
<text x="149" y="50" style="font:4px Dialog">63,76</text>
<line x1="172" y1="62" x2="173" y2="63" style="fill:none;stroke:rgb(0,0,0);stroke-linecap:square" />
<text x="175" y="64" style="font:4px Dialog">76,69</text>
<line x1="182" y1="156" x2="183" y2="157" style="fill:none;stroke:rgb(0,0,0);stroke-linecap:square" />
<text x="185" y="158" style="font:4px Dialog">81,22</text>
<line x1="152" y1="94" x2="153" y2="95" style="fill:none;stroke:rgb(0,0,0);stroke-linecap:square" />
<text x="155" y="96" style="font:4px Dialog">66,53</text>
<line x1="38" y1="106" x2="39" y2="107" style="fill:none;stroke:rgb(0,0,0);stroke-linecap:square" />
<text x="41" y="108" style="font:4px Dialog">9,47</text>
<line x1="88" y1="46" x2="89" y2="47" style="fill:none;stroke:rgb(0,0,0);stroke-linecap:square" />
<text x="91" y="48" style="font:4px Dialog">34,77</text>
<line x1="202" y1="42" x2="203" y2="43" style="fill:none;stroke:rgb(0,0,0);stroke-linecap:square" />
<text x="205" y="44" style="font:4px Dialog">91,79</text>
<line x1="172" y1="68" x2="173" y2="69" style="fill:none;stroke:rgb(0,0,0);stroke-linecap:square" />
<text x="175" y="70" style="font:4px Dialog">76,66</text>
<line x1="34" y1="118" x2="35" y2="119" style="fill:none;stroke:rgb(0,0,0);stroke-linecap:square" />
<text x="37" y="120" style="font:4px Dialog">7,41</text>
<line x1="154" y1="110" x2="155" y2="111" style="fill:none;stroke:rgb(0,0,0);stroke-linecap:square" />
<text x="157" y="112" style="font:4px Dialog">67,45</text>
<line x1="84" y1="126" x2="85" y2="127" style="fill:none;stroke:rgb(0,0,0);stroke-linecap:square" />
<text x="87" y="128" style="font:4px Dialog">32,37</text>
<line x1="160" y1="138" x2="161" y2="139" style="fill:none;stroke:rgb(0,0,0);stroke-linecap:square" />
<text x="163" y="140" style="font:4px Dialog">70,31</text>
<line x1="72" y1="16" x2="73" y2="17" style="fill:none;stroke:rgb(0,0,0);stroke-linecap:square" />
<text x="75" y="18" style="font:4px Dialog">26,92</text>
<line x1="30" y1="140" x2="31" y2="141" style="fill:none;stroke:rgb(0,0,0);stroke-linecap:square" />
<text x="33" y="142" style="font:4px Dialog">5,30</text>
<line x1="218" y1="94" x2="219" y2="95" style="fill:none;stroke:rgb(0,0,0);stroke-linecap:square" />
<text x="221" y="96" style="font:4px Dialog">99,53</text>
<line x1="90" y1="22" x2="91" y2="23" style="fill:none;stroke:rgb(0,0,0);stroke-linecap:square" />
<text x="93" y="24" style="font:4px Dialog">35,89</text>
<line x1="166" y1="46" x2="167" y2="47" style="fill:none;stroke:rgb(0,0,0);stroke-linecap:square" />
<text x="169" y="48" style="font:4px Dialog">73,77</text>
<line x1="106" y1="52" x2="107" y2="53" style="fill:none;stroke:rgb(0,0,0);stroke-linecap:square" />
<text x="109" y="54" style="font:4px Dialog">43,74</text>
<line x1="128" y1="54" x2="129" y2="55" style="fill:none;stroke:rgb(0,0,0);stroke-linecap:square" />
<text x="131" y="56" style="font:4px Dialog">54,73</text>
<line x1="200" y1="90" x2="201" y2="91" style="fill:none;stroke:rgb(0,0,0);stroke-linecap:square" />
<text x="203" y="92" style="font:4px Dialog">90,55</text>
<line x1="102" y1="62" x2="103" y2="63" style="fill:none;stroke:rgb(0,0,0);stroke-linecap:square" />
<text x="105" y="64" style="font:4px Dialog">41,69</text>
<line x1="28" y1="34" x2="29" y2="35" style="fill:none;stroke:rgb(0,0,0);stroke-linecap:square" />
<text x="31" y="36" style="font:4px Dialog">4,83</text>
<line x1="20" y1="194" x2="21" y2="195" style="fill:none;stroke:rgb(0,0,0);stroke-linecap:square" />
<text x="23" y="196" style="font:4px Dialog">0,3</text>
<line x1="52" y1="52" x2="53" y2="53" style="fill:none;stroke:rgb(0,0,0);stroke-linecap:square" />
<text x="55" y="54" style="font:4px Dialog">16,74</text>
<line x1="104" y1="12" x2="105" y2="13" style="fill:none;stroke:rgb(0,0,0);stroke-linecap:square" />
<text x="107" y="14" style="font:4px Dialog">42,94</text>
<line x1="38" y1="154" x2="39" y2="155" style="fill:none;stroke:rgb(0,0,0);stroke-linecap:square" />
<text x="41" y="156" style="font:4px Dialog">9,23</text>
<line x1="88" y1="130" x2="89" y2="131" style="fill:none;stroke:rgb(0,0,0);stroke-linecap:square" />
<text x="91" y="132" style="font:4px Dialog">34,35</text>
<line x1="48" y1="200" x2="49" y2="201" style="fill:none;stroke:rgb(0,0,0);stroke-linecap:square" />
<text x="51" y="202" style="font:4px Dialog">14,0</text>
<line x1="102" y1="110" x2="103" y2="111" style="fill:none;stroke:rgb(0,0,0);stroke-linecap:square" />
<text x="105" y="112" style="font:4px Dialog">41,45</text>
<line x1="84" y1="188" x2="85" y2="189" style="fill:none;stroke:rgb(0,0,0);stroke-linecap:square" />
<text x="87" y="190" style="font:4px Dialog">32,6</text>
<line x1="48" y1="200" x2="49" y2="201" style="fill:none;stroke:rgb(0,0,0);stroke-linecap:square" />
<text x="51" y="202" style="font:4px Dialog">14,0</text>
<line x1="200" y1="18" x2="201" y2="19" style="fill:none;stroke:rgb(0,0,0);stroke-linecap:square" />
<text x="203" y="20" style="font:4px Dialog">90,91</text>
<line x1="46" y1="90" x2="47" y2="91" style="fill:none;stroke:rgb(0,0,0);stroke-linecap:square" />
<text x="49" y="92" style="font:4px Dialog">13,55</text>
<line x1="34" y1="52" x2="35" y2="53" style="fill:none;stroke:rgb(0,0,0);stroke-linecap:square" />
<text x="37" y="54" style="font:4px Dialog">7,74</text>
<line x1="158" y1="58" x2="159" y2="59" style="fill:none;stroke:rgb(0,0,0);stroke-linecap:square" />
<text x="161" y="60" style="font:4px Dialog">69,71</text>
<line x1="118" y1="132" x2="119" y2="133" style="fill:none;stroke:rgb(0,0,0);stroke-linecap:square" />
<text x="121" y="134" style="font:4px Dialog">49,34</text>
<line x1="172" y1="92" x2="173" y2="93" style="fill:none;stroke:rgb(0,0,0);stroke-linecap:square" />
<text x="175" y="94" style="font:4px Dialog">76,54</text>
</svg>
