<?xml version="1.0" encoding="UTF-8"?>
<!DOCTYPE svg PUBLIC "-//W3C//DTD SVG 1.1//EN" "http://www.w3.org/Graphics/SVG/1.1/DTD/svg11.dtd">
<svg version="1.2" xmlns="http://www.w3.org/2000/svg" xmlns:xlink="http://www.w3.org/1999/xlink" x="0mm" y="0mm" width="400mm" height="400mm" viewBox="0 0 400 400">
<style type="text/css"><![CDATA[
text { font:12px Dialog; }
]]></style>
<line x1="20" y1="200" x2="420" y2="200" style="fill:none;stroke:rgb(0,0,0);stroke-linecap:square" />
<line x1="20" y1="200" x2="20" y2="-200" style="fill:none;stroke:rgb(0,0,0);stroke-linecap:square" />
<line x1="20" y1="204" x2="20" y2="196" style="fill:none;stroke:rgb(0,0,0);stroke-linecap:square" />
<line x1="40" y1="204" x2="40" y2="196" style="fill:none;stroke:rgb(0,0,0);stroke-linecap:square" />
<text x="37" y="206" style="font:4px Dialog">10</text>
<line x1="60" y1="204" x2="60" y2="196" style="fill:none;stroke:rgb(0,0,0);stroke-linecap:square" />
<text x="57" y="206" style="font:4px Dialog">20</text>
<line x1="80" y1="204" x2="80" y2="196" style="fill:none;stroke:rgb(0,0,0);stroke-linecap:square" />
<text x="77" y="206" style="font:4px Dialog">30</text>
<line x1="100" y1="204" x2="100" y2="196" style="fill:none;stroke:rgb(0,0,0);stroke-linecap:square" />
<text x="97" y="206" style="font:4px Dialog">40</text>
<line x1="120" y1="204" x2="120" y2="196" style="fill:none;stroke:rgb(0,0,0);stroke-linecap:square" />
<text x="117" y="206" style="font:4px Dialog">50</text>
<line x1="140" y1="204" x2="140" y2="196" style="fill:none;stroke:rgb(0,0,0);stroke-linecap:square" />
<text x="137" y="206" style="font:4px Dialog">60</text>
<line x1="160" y1="204" x2="160" y2="196" style="fill:none;stroke:rgb(0,0,0);stroke-linecap:square" />
<text x="157" y="206" style="font:4px Dialog">70</text>
<line x1="180" y1="204" x2="180" y2="196" style="fill:none;stroke:rgb(0,0,0);stroke-linecap:square" />
<text x="177" y="206" style="font:4px Dialog">80</text>
<line x1="200" y1="204" x2="200" y2="196" style="fill:none;stroke:rgb(0,0,0);stroke-linecap:square" />
<text x="197" y="206" style="font:4px Dialog">90</text>
<line x1="220" y1="204" x2="220" y2="196" style="fill:none;stroke:rgb(0,0,0);stroke-linecap:square" />
<text x="217" y="206" style="font:4px Dialog">100</text>
<line x1="240" y1="204" x2="240" y2="196" style="fill:none;stroke:rgb(0,0,0);stroke-linecap:square" />
<text x="237" y="206" style="font:4px Dialog">110</text>
<line x1="260" y1="204" x2="260" y2="196" style="fill:none;stroke:rgb(0,0,0);stroke-linecap:square" />
<text x="257" y="206" style="font:4px Dialog">120</text>
<line x1="280" y1="204" x2="280" y2="196" style="fill:none;stroke:rgb(0,0,0);stroke-linecap:square" />
<text x="277" y="206" style="font:4px Dialog">130</text>
<line x1="300" y1="204" x2="300" y2="196" style="fill:none;stroke:rgb(0,0,0);stroke-linecap:square" />
<text x="297" y="206" style="font:4px Dialog">140</text>
<line x1="320" y1="204" x2="320" y2="196" style="fill:none;stroke:rgb(0,0,0);stroke-linecap:square" />
<text x="317" y="206" style="font:4px Dialog">150</text>
<line x1="340" y1="204" x2="340" y2="196" style="fill:none;stroke:rgb(0,0,0);stroke-linecap:square" />
<text x="337" y="206" style="font:4px Dialog">160</text>
<line x1="360" y1="204" x2="360" y2="196" style="fill:none;stroke:rgb(0,0,0);stroke-linecap:square" />
<text x="357" y="206" style="font:4px Dialog">170</text>
<line x1="380" y1="204" x2="380" y2="196" style="fill:none;stroke:rgb(0,0,0);stroke-linecap:square" />
<text x="377" y="206" style="font:4px Dialog">180</text>
<line x1="400" y1="204" x2="400" y2="196" style="fill:none;stroke:rgb(0,0,0);stroke-linecap:square" />
<text x="397" y="206" style="font:4px Dialog">190</text>
<line x1="16" y1="200" x2="24" y2="200" style="fill:none;stroke:rgb(0,0,0);stroke-linecap:square" />
<line x1="16" y1="180" x2="24" y2="180" style="fill:none;stroke:rgb(0,0,0);stroke-linecap:square" />
<text x="4" y="182" style="font:4px Dialog">10</text>
<line x1="16" y1="160" x2="24" y2="160" style="fill:none;stroke:rgb(0,0,0);stroke-linecap:square" />
<text x="4" y="162" style="font:4px Dialog">20</text>
<line x1="16" y1="140" x2="24" y2="140" style="fill:none;stroke:rgb(0,0,0);stroke-linecap:square" />
<text x="4" y="142" style="font:4px Dialog">30</text>
<line x1="16" y1="120" x2="24" y2="120" style="fill:none;stroke:rgb(0,0,0);stroke-linecap:square" />
<text x="4" y="122" style="font:4px Dialog">40</text>
<line x1="16" y1="100" x2="24" y2="100" style="fill:none;stroke:rgb(0,0,0);stroke-linecap:square" />
<text x="4" y="102" style="font:4px Dialog">50</text>
<line x1="16" y1="80" x2="24" y2="80" style="fill:none;stroke:rgb(0,0,0);stroke-linecap:square" />
<text x="4" y="82" style="font:4px Dialog">60</text>
<line x1="16" y1="60" x2="24" y2="60" style="fill:none;stroke:rgb(0,0,0);stroke-linecap:square" />
<text x="4" y="62" style="font:4px Dialog">70</text>
<line x1="16" y1="40" x2="24" y2="40" style="fill:none;stroke:rgb(0,0,0);stroke-linecap:square" />
<text x="4" y="42" style="font:4px Dialog">80</text>
<line x1="16" y1="20" x2="24" y2="20" style="fill:none;stroke:rgb(0,0,0);stroke-linecap:square" />
<text x="4" y="22" style="font:4px Dialog">90</text>
<line x1="16" y1="0" x2="24" y2="0" style="fill:none;stroke:rgb(0,0,0);stroke-linecap:square" />
<text x="4" y="2" style="font:4px Dialog">100</text>
<line x1="16" y1="-20" x2="24" y2="-20" style="fill:none;stroke:rgb(0,0,0);stroke-linecap:square" />
<text x="4" y="-18" style="font:4px Dialog">110</text>
<line x1="16" y1="-40" x2="24" y2="-40" style="fill:none;stroke:rgb(0,0,0);stroke-linecap:square" />
<text x="4" y="-38" style="font:4px Dialog">120</text>
<line x1="16" y1="-60" x2="24" y2="-60" style="fill:none;stroke:rgb(0,0,0);stroke-linecap:square" />
<text x="4" y="-58" style="font:4px Dialog">130</text>
<line x1="16" y1="-80" x2="24" y2="-80" style="fill:none;stroke:rgb(0,0,0);stroke-linecap:square" />
<text x="4" y="-78" style="font:4px Dialog">140</text>
<line x1="16" y1="-100" x2="24" y2="-100" style="fill:none;stroke:rgb(0,0,0);stroke-linecap:square" />
<text x="4" y="-98" style="font:4px Dialog">150</text>
<line x1="16" y1="-120" x2="24" y2="-120" style="fill:none;stroke:rgb(0,0,0);stroke-linecap:square" />
<text x="4" y="-118" style="font:4px Dialog">160</text>
<line x1="16" y1="-140" x2="24" y2="-140" style="fill:none;stroke:rgb(0,0,0);stroke-linecap:square" />
<text x="4" y="-138" style="font:4px Dialog">170</text>
<line x1="16" y1="-160" x2="24" y2="-160" style="fill:none;stroke:rgb(0,0,0);stroke-linecap:square" />
<text x="4" y="-158" style="font:4px Dialog">180</text>
<line x1="16" y1="-180" x2="24" y2="-180" style="fill:none;stroke:rgb(0,0,0);stroke-linecap:square" />
<text x="4" y="-178" style="font:4px Dialog">190</text>
<line x1="24" y1="174" x2="25" y2="175" style="fill:none;stroke:rgb(0,0,0);stroke-linecap:square" />
<text x="27" y="176" style="font:4px Dialog">2,13</text>
<line x1="128" y1="74" x2="129" y2="75" style="fill:none;stroke:rgb(0,0,0);stroke-linecap:square" />
<text x="131" y="76" style="font:4px Dialog">54,63</text>
<line x1="164" y1="158" x2="165" y2="159" style="fill:none;stroke:rgb(0,0,0);stroke-linecap:square" />
<text x="167" y="160" style="font:4px Dialog">72,21</text>
<line x1="180" y1="54" x2="181" y2="55" style="fill:none;stroke:rgb(0,0,0);stroke-linecap:square" />
<text x="183" y="56" style="font:4px Dialog">80,73</text>
<line x1="82" y1="6" x2="83" y2="7" style="fill:none;stroke:rgb(0,0,0);stroke-linecap:square" />
<text x="85" y="8" style="font:4px Dialog">31,97</text>
<line x1="190" y1="60" x2="191" y2="61" style="fill:none;stroke:rgb(0,0,0);stroke-linecap:square" />
<text x="193" y="62" style="font:4px Dialog">85,70</text>
<line x1="100" y1="56" x2="101" y2="57" style="fill:none;stroke:rgb(0,0,0);stroke-linecap:square" />
<text x="103" y="58" style="font:4px Dialog">40,72</text>
<line x1="96" y1="10" x2="97" y2="11" style="fill:none;stroke:rgb(0,0,0);stroke-linecap:square" />
<text x="99" y="12" style="font:4px Dialog">38,95</text>
<line x1="174" y1="184" x2="175" y2="185" style="fill:none;stroke:rgb(0,0,0);stroke-linecap:square" />
<text x="177" y="186" style="font:4px Dialog">77,8</text>
<line x1="200" y1="12" x2="201" y2="13" style="fill:none;stroke:rgb(0,0,0);stroke-linecap:square" />
<text x="203" y="14" style="font:4px Dialog">90,94</text>
<line x1="158" y1="80" x2="159" y2="81" style="fill:none;stroke:rgb(0,0,0);stroke-linecap:square" />
<text x="161" y="82" style="font:4px Dialog">69,60</text>
<line x1="100" y1="82" x2="101" y2="83" style="fill:none;stroke:rgb(0,0,0);stroke-linecap:square" />
<text x="103" y="84" style="font:4px Dialog">40,59</text>
<line x1="152" y1="88" x2="153" y2="89" style="fill:none;stroke:rgb(0,0,0);stroke-linecap:square" />
<text x="155" y="90" style="font:4px Dialog">66,56</text>
<line x1="82" y1="114" x2="83" y2="115" style="fill:none;stroke:rgb(0,0,0);stroke-linecap:square" />
<text x="85" y="116" style="font:4px Dialog">31,43</text>
</svg>
