<?xml version="1.0" encoding="UTF-8"?>
<!DOCTYPE svg PUBLIC "-//W3C//DTD SVG 1.1//EN" "http://www.w3.org/Graphics/SVG/1.1/DTD/svg11.dtd">
<svg version="1.2" xmlns="http://www.w3.org/2000/svg" xmlns:xlink="http://www.w3.org/1999/xlink" x="0mm" y="0mm" width="400mm" height="400mm" viewBox="0 0 400 400">
<style type="text/css"><![CDATA[
text { font:12px Dialog; }
]]></style>
<line x1="20" y1="200" x2="420" y2="200" style="fill:none;stroke:rgb(0,0,0);stroke-linecap:square" />
<line x1="20" y1="200" x2="20" y2="-200" style="fill:none;stroke:rgb(0,0,0);stroke-linecap:square" />
<line x1="20" y1="204" x2="20" y2="196" style="fill:none;stroke:rgb(0,0,0);stroke-linecap:square" />
<line x1="40" y1="204" x2="40" y2="196" style="fill:none;stroke:rgb(0,0,0);stroke-linecap:square" />
<text x="37" y="206" style="font:4px Dialog">10</text>
<line x1="60" y1="204" x2="60" y2="196" style="fill:none;stroke:rgb(0,0,0);stroke-linecap:square" />
<text x="57" y="206" style="font:4px Dialog">20</text>
<line x1="80" y1="204" x2="80" y2="196" style="fill:none;stroke:rgb(0,0,0);stroke-linecap:square" />
<text x="77" y="206" style="font:4px Dialog">30</text>
<line x1="100" y1="204" x2="100" y2="196" style="fill:none;stroke:rgb(0,0,0);stroke-linecap:square" />
<text x="97" y="206" style="font:4px Dialog">40</text>
<line x1="120" y1="204" x2="120" y2="196" style="fill:none;stroke:rgb(0,0,0);stroke-linecap:square" />
<text x="117" y="206" style="font:4px Dialog">50</text>
<line x1="140" y1="204" x2="140" y2="196" style="fill:none;stroke:rgb(0,0,0);stroke-linecap:square" />
<text x="137" y="206" style="font:4px Dialog">60</text>
<line x1="160" y1="204" x2="160" y2="196" style="fill:none;stroke:rgb(0,0,0);stroke-linecap:square" />
<text x="157" y="206" style="font:4px Dialog">70</text>
<line x1="180" y1="204" x2="180" y2="196" style="fill:none;stroke:rgb(0,0,0);stroke-linecap:square" />
<text x="177" y="206" style="font:4px Dialog">80</text>
<line x1="200" y1="204" x2="200" y2="196" style="fill:none;stroke:rgb(0,0,0);stroke-linecap:square" />
<text x="197" y="206" style="font:4px Dialog">90</text>
<line x1="220" y1="204" x2="220" y2="196" style="fill:none;stroke:rgb(0,0,0);stroke-linecap:square" />
<text x="217" y="206" style="font:4px Dialog">100</text>
<line x1="240" y1="204" x2="240" y2="196" style="fill:none;stroke:rgb(0,0,0);stroke-linecap:square" />
<text x="237" y="206" style="font:4px Dialog">110</text>
<line x1="260" y1="204" x2="260" y2="196" style="fill:none;stroke:rgb(0,0,0);stroke-linecap:square" />
<text x="257" y="206" style="font:4px Dialog">120</text>
<line x1="280" y1="204" x2="280" y2="196" style="fill:none;stroke:rgb(0,0,0);stroke-linecap:square" />
<text x="277" y="206" style="font:4px Dialog">130</text>
<line x1="300" y1="204" x2="300" y2="196" style="fill:none;stroke:rgb(0,0,0);stroke-linecap:square" />
<text x="297" y="206" style="font:4px Dialog">140</text>
<line x1="320" y1="204" x2="320" y2="196" style="fill:none;stroke:rgb(0,0,0);stroke-linecap:square" />
<text x="317" y="206" style="font:4px Dialog">150</text>
<line x1="340" y1="204" x2="340" y2="196" style="fill:none;stroke:rgb(0,0,0);stroke-linecap:square" />
<text x="337" y="206" style="font:4px Dialog">160</text>
<line x1="360" y1="204" x2="360" y2="196" style="fill:none;stroke:rgb(0,0,0);stroke-linecap:square" />
<text x="357" y="206" style="font:4px Dialog">170</text>
<line x1="380" y1="204" x2="380" y2="196" style="fill:none;stroke:rgb(0,0,0);stroke-linecap:square" />
<text x="377" y="206" style="font:4px Dialog">180</text>
<line x1="400" y1="204" x2="400" y2="196" style="fill:none;stroke:rgb(0,0,0);stroke-linecap:square" />
<text x="397" y="206" style="font:4px Dialog">190</text>
<line x1="16" y1="200" x2="24" y2="200" style="fill:none;stroke:rgb(0,0,0);stroke-linecap:square" />
<line x1="16" y1="180" x2="24" y2="180" style="fill:none;stroke:rgb(0,0,0);stroke-linecap:square" />
<text x="4" y="182" style="font:4px Dialog">10</text>
<line x1="16" y1="160" x2="24" y2="160" style="fill:none;stroke:rgb(0,0,0);stroke-linecap:square" />
<text x="4" y="162" style="font:4px Dialog">20</text>
<line x1="16" y1="140" x2="24" y2="140" style="fill:none;stroke:rgb(0,0,0);stroke-linecap:square" />
<text x="4" y="142" style="font:4px Dialog">30</text>
<line x1="16" y1="120" x2="24" y2="120" style="fill:none;stroke:rgb(0,0,0);stroke-linecap:square" />
<text x="4" y="122" style="font:4px Dialog">40</text>
<line x1="16" y1="100" x2="24" y2="100" style="fill:none;stroke:rgb(0,0,0);stroke-linecap:square" />
<text x="4" y="102" style="font:4px Dialog">50</text>
<line x1="16" y1="80" x2="24" y2="80" style="fill:none;stroke:rgb(0,0,0);stroke-linecap:square" />
<text x="4" y="82" style="font:4px Dialog">60</text>
<line x1="16" y1="60" x2="24" y2="60" style="fill:none;stroke:rgb(0,0,0);stroke-linecap:square" />
<text x="4" y="62" style="font:4px Dialog">70</text>
<line x1="16" y1="40" x2="24" y2="40" style="fill:none;stroke:rgb(0,0,0);stroke-linecap:square" />
<text x="4" y="42" style="font:4px Dialog">80</text>
<line x1="16" y1="20" x2="24" y2="20" style="fill:none;stroke:rgb(0,0,0);stroke-linecap:square" />
<text x="4" y="22" style="font:4px Dialog">90</text>
<line x1="16" y1="0" x2="24" y2="0" style="fill:none;stroke:rgb(0,0,0);stroke-linecap:square" />
<text x="4" y="2" style="font:4px Dialog">100</text>
<line x1="16" y1="-20" x2="24" y2="-20" style="fill:none;stroke:rgb(0,0,0);stroke-linecap:square" />
<text x="4" y="-18" style="font:4px Dialog">110</text>
<line x1="16" y1="-40" x2="24" y2="-40" style="fill:none;stroke:rgb(0,0,0);stroke-linecap:square" />
<text x="4" y="-38" style="font:4px Dialog">120</text>
<line x1="16" y1="-60" x2="24" y2="-60" style="fill:none;stroke:rgb(0,0,0);stroke-linecap:square" />
<text x="4" y="-58" style="font:4px Dialog">130</text>
<line x1="16" y1="-80" x2="24" y2="-80" style="fill:none;stroke:rgb(0,0,0);stroke-linecap:square" />
<text x="4" y="-78" style="font:4px Dialog">140</text>
<line x1="16" y1="-100" x2="24" y2="-100" style="fill:none;stroke:rgb(0,0,0);stroke-linecap:square" />
<text x="4" y="-98" style="font:4px Dialog">150</text>
<line x1="16" y1="-120" x2="24" y2="-120" style="fill:none;stroke:rgb(0,0,0);stroke-linecap:square" />
<text x="4" y="-118" style="font:4px Dialog">160</text>
<line x1="16" y1="-140" x2="24" y2="-140" style="fill:none;stroke:rgb(0,0,0);stroke-linecap:square" />
<text x="4" y="-138" style="font:4px Dialog">170</text>
<line x1="16" y1="-160" x2="24" y2="-160" style="fill:none;stroke:rgb(0,0,0);stroke-linecap:square" />
<text x="4" y="-158" style="font:4px Dialog">180</text>
<line x1="16" y1="-180" x2="24" y2="-180" style="fill:none;stroke:rgb(0,0,0);stroke-linecap:square" />
<text x="4" y="-178" style="font:4px Dialog">190</text>
<line x1="72" y1="78" x2="73" y2="79" style="fill:none;stroke:rgb(0,0,0);stroke-linecap:square" />
<text x="75" y="80" style="font:4px Dialog">26,61</text>
<line x1="26" y1="74" x2="27" y2="75" style="fill:none;stroke:rgb(0,0,0);stroke-linecap:square" />
<text x="29" y="76" style="font:4px Dialog">3,63</text>
<line x1="56" y1="124" x2="57" y2="125" style="fill:none;stroke:rgb(0,0,0);stroke-linecap:square" />
<text x="59" y="126" style="font:4px Dialog">18,38</text>
<line x1="94" y1="142" x2="95" y2="143" style="fill:none;stroke:rgb(0,0,0);stroke-linecap:square" />
<text x="97" y="144" style="font:4px Dialog">37,29</text>
<line x1="76" y1="102" x2="77" y2="103" style="fill:none;stroke:rgb(0,0,0);stroke-linecap:square" />
<text x="79" y="104" style="font:4px Dialog">28,49</text>
<line x1="52" y1="186" x2="53" y2="187" style="fill:none;stroke:rgb(0,0,0);stroke-linecap:square" />
<text x="55" y="188" style="font:4px Dialog">16,7</text>
<line x1="64" y1="16" x2="65" y2="17" style="fill:none;stroke:rgb(0,0,0);stroke-linecap:square" />
<text x="67" y="18" style="font:4px Dialog">22,92</text>
<line x1="122" y1="180" x2="123" y2="181" style="fill:none;stroke:rgb(0,0,0);stroke-linecap:square" />
<text x="125" y="182" style="font:4px Dialog">51,10</text>
<line x1="158" y1="156" x2="159" y2="157" style="fill:none;stroke:rgb(0,0,0);stroke-linecap:square" />
<text x="161" y="158" style="font:4px Dialog">69,22</text>
<line x1="208" y1="60" x2="209" y2="61" style="fill:none;stroke:rgb(0,0,0);stroke-linecap:square" />
<text x="211" y="62" style="font:4px Dialog">94,70</text>
<line x1="64" y1="178" x2="65" y2="179" style="fill:none;stroke:rgb(0,0,0);stroke-linecap:square" />
<text x="67" y="180" style="font:4px Dialog">22,11</text>
<line x1="184" y1="184" x2="185" y2="185" style="fill:none;stroke:rgb(0,0,0);stroke-linecap:square" />
<text x="187" y="186" style="font:4px Dialog">82,8</text>
<line x1="108" y1="128" x2="109" y2="129" style="fill:none;stroke:rgb(0,0,0);stroke-linecap:square" />
<text x="111" y="130" style="font:4px Dialog">44,36</text>
<line x1="190" y1="198" x2="191" y2="199" style="fill:none;stroke:rgb(0,0,0);stroke-linecap:square" />
<text x="193" y="200" style="font:4px Dialog">85,1</text>
<line x1="170" y1="20" x2="171" y2="21" style="fill:none;stroke:rgb(0,0,0);stroke-linecap:square" />
<text x="173" y="22" style="font:4px Dialog">75,90</text>
<line x1="32" y1="46" x2="33" y2="47" style="fill:none;stroke:rgb(0,0,0);stroke-linecap:square" />
<text x="35" y="48" style="font:4px Dialog">6,77</text>
<line x1="130" y1="144" x2="131" y2="145" style="fill:none;stroke:rgb(0,0,0);stroke-linecap:square" />
<text x="133" y="146" style="font:4px Dialog">55,28</text>
<line x1="200" y1="188" x2="201" y2="189" style="fill:none;stroke:rgb(0,0,0);stroke-linecap:square" />
<text x="203" y="190" style="font:4px Dialog">90,6</text>
<line x1="72" y1="104" x2="73" y2="105" style="fill:none;stroke:rgb(0,0,0);stroke-linecap:square" />
<text x="75" y="106" style="font:4px Dialog">26,48</text>
<line x1="196" y1="112" x2="197" y2="113" style="fill:none;stroke:rgb(0,0,0);stroke-linecap:square" />
<text x="199" y="114" style="font:4px Dialog">88,44</text>
<line x1="210" y1="166" x2="211" y2="167" style="fill:none;stroke:rgb(0,0,0);stroke-linecap:square" />
<text x="213" y="168" style="font:4px Dialog">95,17</text>
<line x1="130" y1="74" x2="131" y2="75" style="fill:none;stroke:rgb(0,0,0);stroke-linecap:square" />
<text x="133" y="76" style="font:4px Dialog">55,63</text>
<line x1="70" y1="66" x2="71" y2="67" style="fill:none;stroke:rgb(0,0,0);stroke-linecap:square" />
<text x="73" y="68" style="font:4px Dialog">25,67</text>
<line x1="180" y1="42" x2="181" y2="43" style="fill:none;stroke:rgb(0,0,0);stroke-linecap:square" />
<text x="183" y="44" style="font:4px Dialog">80,79</text>
<line x1="178" y1="66" x2="179" y2="67" style="fill:none;stroke:rgb(0,0,0);stroke-linecap:square" />
<text x="181" y="68" style="font:4px Dialog">79,67</text>
<line x1="94" y1="10" x2="95" y2="11" style="fill:none;stroke:rgb(0,0,0);stroke-linecap:square" />
<text x="97" y="12" style="font:4px Dialog">37,95</text>
<line x1="162" y1="130" x2="163" y2="131" style="fill:none;stroke:rgb(0,0,0);stroke-linecap:square" />
<text x="165" y="132" style="font:4px Dialog">71,35</text>
<line x1="36" y1="156" x2="37" y2="157" style="fill:none;stroke:rgb(0,0,0);stroke-linecap:square" />
<text x="39" y="158" style="font:4px Dialog">8,22</text>
<line x1="32" y1="192" x2="33" y2="193" style="fill:none;stroke:rgb(0,0,0);stroke-linecap:square" />
<text x="35" y="194" style="font:4px Dialog">6,4</text>
<line x1="78" y1="182" x2="79" y2="183" style="fill:none;stroke:rgb(0,0,0);stroke-linecap:square" />
<text x="81" y="184" style="font:4px Dialog">29,9</text>
<line x1="108" y1="58" x2="109" y2="59" style="fill:none;stroke:rgb(0,0,0);stroke-linecap:square" />
<text x="111" y="60" style="font:4px Dialog">44,71</text>
<line x1="90" y1="8" x2="91" y2="9" style="fill:none;stroke:rgb(0,0,0);stroke-linecap:square" />
<text x="93" y="10" style="font:4px Dialog">35,96</text>
<line x1="114" y1="106" x2="115" y2="107" style="fill:none;stroke:rgb(0,0,0);stroke-linecap:square" />
<text x="117" y="108" style="font:4px Dialog">47,47</text>
<line x1="106" y1="104" x2="107" y2="105" style="fill:none;stroke:rgb(0,0,0);stroke-linecap:square" />
<text x="109" y="106" style="font:4px Dialog">43,48</text>
<line x1="108" y1="160" x2="109" y2="161" style="fill:none;stroke:rgb(0,0,0);stroke-linecap:square" />
<text x="111" y="162" style="font:4px Dialog">44,20</text>
<line x1="44" y1="78" x2="45" y2="79" style="fill:none;stroke:rgb(0,0,0);stroke-linecap:square" />
<text x="47" y="80" style="font:4px Dialog">12,61</text>
<line x1="150" y1="58" x2="151" y2="59" style="fill:none;stroke:rgb(0,0,0);stroke-linecap:square" />
<text x="153" y="60" style="font:4px Dialog">65,71</text>
<line x1="160" y1="164" x2="161" y2="165" style="fill:none;stroke:rgb(0,0,0);stroke-linecap:square" />
<text x="163" y="166" style="font:4px Dialog">70,18</text>
<line x1="152" y1="112" x2="153" y2="113" style="fill:none;stroke:rgb(0,0,0);stroke-linecap:square" />
<text x="155" y="114" style="font:4px Dialog">66,44</text>
<line x1="144" y1="22" x2="145" y2="23" style="fill:none;stroke:rgb(0,0,0);stroke-linecap:square" />
<text x="147" y="24" style="font:4px Dialog">62,89</text>
<line x1="82" y1="112" x2="83" y2="113" style="fill:none;stroke:rgb(0,0,0);stroke-linecap:square" />
<text x="85" y="114" style="font:4px Dialog">31,44</text>
<line x1="160" y1="34" x2="161" y2="35" style="fill:none;stroke:rgb(0,0,0);stroke-linecap:square" />
<text x="163" y="36" style="font:4px Dialog">70,83</text>
<line x1="148" y1="72" x2="149" y2="73" style="fill:none;stroke:rgb(0,0,0);stroke-linecap:square" />
<text x="151" y="74" style="font:4px Dialog">64,64</text>
<line x1="126" y1="88" x2="127" y2="89" style="fill:none;stroke:rgb(0,0,0);stroke-linecap:square" />
<text x="129" y="90" style="font:4px Dialog">53,56</text>
<line x1="190" y1="38" x2="191" y2="39" style="fill:none;stroke:rgb(0,0,0);stroke-linecap:square" />
<text x="193" y="40" style="font:4px Dialog">85,81</text>
<line x1="166" y1="122" x2="167" y2="123" style="fill:none;stroke:rgb(0,0,0);stroke-linecap:square" />
<text x="169" y="124" style="font:4px Dialog">73,39</text>
<line x1="188" y1="184" x2="189" y2="185" style="fill:none;stroke:rgb(0,0,0);stroke-linecap:square" />
<text x="191" y="186" style="font:4px Dialog">84,8</text>
<line x1="106" y1="18" x2="107" y2="19" style="fill:none;stroke:rgb(0,0,0);stroke-linecap:square" />
<text x="109" y="20" style="font:4px Dialog">43,91</text>
<line x1="120" y1="156" x2="121" y2="157" style="fill:none;stroke:rgb(0,0,0);stroke-linecap:square" />
<text x="123" y="158" style="font:4px Dialog">50,22</text>
<line x1="184" y1="154" x2="185" y2="155" style="fill:none;stroke:rgb(0,0,0);stroke-linecap:square" />
<text x="187" y="156" style="font:4px Dialog">82,23</text>
<line x1="202" y1="38" x2="203" y2="39" style="fill:none;stroke:rgb(0,0,0);stroke-linecap:square" />
<text x="205" y="40" style="font:4px Dialog">91,81</text>
<line x1="76" y1="154" x2="77" y2="155" style="fill:none;stroke:rgb(0,0,0);stroke-linecap:square" />
<text x="79" y="156" style="font:4px Dialog">28,23</text>
<line x1="40" y1="162" x2="41" y2="163" style="fill:none;stroke:rgb(0,0,0);stroke-linecap:square" />
<text x="43" y="164" style="font:4px Dialog">10,19</text>
<line x1="52" y1="198" x2="53" y2="199" style="fill:none;stroke:rgb(0,0,0);stroke-linecap:square" />
<text x="55" y="200" style="font:4px Dialog">16,1</text>
<line x1="196" y1="66" x2="197" y2="67" style="fill:none;stroke:rgb(0,0,0);stroke-linecap:square" />
<text x="199" y="68" style="font:4px Dialog">88,67</text>
<line x1="42" y1="162" x2="43" y2="163" style="fill:none;stroke:rgb(0,0,0);stroke-linecap:square" />
<text x="45" y="164" style="font:4px Dialog">11,19</text>
<line x1="30" y1="22" x2="31" y2="23" style="fill:none;stroke:rgb(0,0,0);stroke-linecap:square" />
<text x="33" y="24" style="font:4px Dialog">5,89</text>
<line x1="74" y1="116" x2="75" y2="117" style="fill:none;stroke:rgb(0,0,0);stroke-linecap:square" />
<text x="77" y="118" style="font:4px Dialog">27,42</text>
<line x1="60" y1="166" x2="61" y2="167" style="fill:none;stroke:rgb(0,0,0);stroke-linecap:square" />
<text x="63" y="168" style="font:4px Dialog">20,17</text>
<line x1="156" y1="4" x2="157" y2="5" style="fill:none;stroke:rgb(0,0,0);stroke-linecap:square" />
<text x="159" y="6" style="font:4px Dialog">68,98</text>
<line x1="24" y1="36" x2="25" y2="37" style="fill:none;stroke:rgb(0,0,0);stroke-linecap:square" />
<text x="27" y="38" style="font:4px Dialog">2,82</text>
<line x1="178" y1="10" x2="179" y2="11" style="fill:none;stroke:rgb(0,0,0);stroke-linecap:square" />
<text x="181" y="12" style="font:4px Dialog">79,95</text>
<line x1="54" y1="24" x2="55" y2="25" style="fill:none;stroke:rgb(0,0,0);stroke-linecap:square" />
<text x="57" y="26" style="font:4px Dialog">17,88</text>
<line x1="194" y1="64" x2="195" y2="65" style="fill:none;stroke:rgb(0,0,0);stroke-linecap:square" />
<text x="197" y="66" style="font:4px Dialog">87,68</text>
<line x1="104" y1="122" x2="105" y2="123" style="fill:none;stroke:rgb(0,0,0);stroke-linecap:square" />
<text x="107" y="124" style="font:4px Dialog">42,39</text>
<line x1="194" y1="16" x2="195" y2="17" style="fill:none;stroke:rgb(0,0,0);stroke-linecap:square" />
<text x="197" y="18" style="font:4px Dialog">87,92</text>
<line x1="218" y1="128" x2="219" y2="129" style="fill:none;stroke:rgb(0,0,0);stroke-linecap:square" />
<text x="221" y="130" style="font:4px Dialog">99,36</text>
</svg>
