<?xml version="1.0" encoding="UTF-8"?>
<!DOCTYPE svg PUBLIC "-//W3C//DTD SVG 1.1//EN" "http://www.w3.org/Graphics/SVG/1.1/DTD/svg11.dtd">
<svg version="1.2" xmlns="http://www.w3.org/2000/svg" xmlns:xlink="http://www.w3.org/1999/xlink" x="0mm" y="0mm" width="400mm" height="400mm" viewBox="0 0 400 400">
<style type="text/css"><![CDATA[
text { font:12px Dialog; }
]]></style>
<line x1="20" y1="200" x2="420" y2="200" style="fill:none;stroke:rgb(0,0,0);stroke-linecap:square" />
<line x1="20" y1="200" x2="20" y2="-200" style="fill:none;stroke:rgb(0,0,0);stroke-linecap:square" />
<line x1="20" y1="204" x2="20" y2="196" style="fill:none;stroke:rgb(0,0,0);stroke-linecap:square" />
<line x1="40" y1="204" x2="40" y2="196" style="fill:none;stroke:rgb(0,0,0);stroke-linecap:square" />
<text x="37" y="206" style="font:4px Dialog">10</text>
<line x1="60" y1="204" x2="60" y2="196" style="fill:none;stroke:rgb(0,0,0);stroke-linecap:square" />
<text x="57" y="206" style="font:4px Dialog">20</text>
<line x1="80" y1="204" x2="80" y2="196" style="fill:none;stroke:rgb(0,0,0);stroke-linecap:square" />
<text x="77" y="206" style="font:4px Dialog">30</text>
<line x1="100" y1="204" x2="100" y2="196" style="fill:none;stroke:rgb(0,0,0);stroke-linecap:square" />
<text x="97" y="206" style="font:4px Dialog">40</text>
<line x1="120" y1="204" x2="120" y2="196" style="fill:none;stroke:rgb(0,0,0);stroke-linecap:square" />
<text x="117" y="206" style="font:4px Dialog">50</text>
<line x1="140" y1="204" x2="140" y2="196" style="fill:none;stroke:rgb(0,0,0);stroke-linecap:square" />
<text x="137" y="206" style="font:4px Dialog">60</text>
<line x1="160" y1="204" x2="160" y2="196" style="fill:none;stroke:rgb(0,0,0);stroke-linecap:square" />
<text x="157" y="206" style="font:4px Dialog">70</text>
<line x1="180" y1="204" x2="180" y2="196" style="fill:none;stroke:rgb(0,0,0);stroke-linecap:square" />
<text x="177" y="206" style="font:4px Dialog">80</text>
<line x1="200" y1="204" x2="200" y2="196" style="fill:none;stroke:rgb(0,0,0);stroke-linecap:square" />
<text x="197" y="206" style="font:4px Dialog">90</text>
<line x1="220" y1="204" x2="220" y2="196" style="fill:none;stroke:rgb(0,0,0);stroke-linecap:square" />
<text x="217" y="206" style="font:4px Dialog">100</text>
<line x1="240" y1="204" x2="240" y2="196" style="fill:none;stroke:rgb(0,0,0);stroke-linecap:square" />
<text x="237" y="206" style="font:4px Dialog">110</text>
<line x1="260" y1="204" x2="260" y2="196" style="fill:none;stroke:rgb(0,0,0);stroke-linecap:square" />
<text x="257" y="206" style="font:4px Dialog">120</text>
<line x1="280" y1="204" x2="280" y2="196" style="fill:none;stroke:rgb(0,0,0);stroke-linecap:square" />
<text x="277" y="206" style="font:4px Dialog">130</text>
<line x1="300" y1="204" x2="300" y2="196" style="fill:none;stroke:rgb(0,0,0);stroke-linecap:square" />
<text x="297" y="206" style="font:4px Dialog">140</text>
<line x1="320" y1="204" x2="320" y2="196" style="fill:none;stroke:rgb(0,0,0);stroke-linecap:square" />
<text x="317" y="206" style="font:4px Dialog">150</text>
<line x1="340" y1="204" x2="340" y2="196" style="fill:none;stroke:rgb(0,0,0);stroke-linecap:square" />
<text x="337" y="206" style="font:4px Dialog">160</text>
<line x1="360" y1="204" x2="360" y2="196" style="fill:none;stroke:rgb(0,0,0);stroke-linecap:square" />
<text x="357" y="206" style="font:4px Dialog">170</text>
<line x1="380" y1="204" x2="380" y2="196" style="fill:none;stroke:rgb(0,0,0);stroke-linecap:square" />
<text x="377" y="206" style="font:4px Dialog">180</text>
<line x1="400" y1="204" x2="400" y2="196" style="fill:none;stroke:rgb(0,0,0);stroke-linecap:square" />
<text x="397" y="206" style="font:4px Dialog">190</text>
<line x1="16" y1="200" x2="24" y2="200" style="fill:none;stroke:rgb(0,0,0);stroke-linecap:square" />
<line x1="16" y1="180" x2="24" y2="180" style="fill:none;stroke:rgb(0,0,0);stroke-linecap:square" />
<text x="4" y="182" style="font:4px Dialog">10</text>
<line x1="16" y1="160" x2="24" y2="160" style="fill:none;stroke:rgb(0,0,0);stroke-linecap:square" />
<text x="4" y="162" style="font:4px Dialog">20</text>
<line x1="16" y1="140" x2="24" y2="140" style="fill:none;stroke:rgb(0,0,0);stroke-linecap:square" />
<text x="4" y="142" style="font:4px Dialog">30</text>
<line x1="16" y1="120" x2="24" y2="120" style="fill:none;stroke:rgb(0,0,0);stroke-linecap:square" />
<text x="4" y="122" style="font:4px Dialog">40</text>
<line x1="16" y1="100" x2="24" y2="100" style="fill:none;stroke:rgb(0,0,0);stroke-linecap:square" />
<text x="4" y="102" style="font:4px Dialog">50</text>
<line x1="16" y1="80" x2="24" y2="80" style="fill:none;stroke:rgb(0,0,0);stroke-linecap:square" />
<text x="4" y="82" style="font:4px Dialog">60</text>
<line x1="16" y1="60" x2="24" y2="60" style="fill:none;stroke:rgb(0,0,0);stroke-linecap:square" />
<text x="4" y="62" style="font:4px Dialog">70</text>
<line x1="16" y1="40" x2="24" y2="40" style="fill:none;stroke:rgb(0,0,0);stroke-linecap:square" />
<text x="4" y="42" style="font:4px Dialog">80</text>
<line x1="16" y1="20" x2="24" y2="20" style="fill:none;stroke:rgb(0,0,0);stroke-linecap:square" />
<text x="4" y="22" style="font:4px Dialog">90</text>
<line x1="16" y1="0" x2="24" y2="0" style="fill:none;stroke:rgb(0,0,0);stroke-linecap:square" />
<text x="4" y="2" style="font:4px Dialog">100</text>
<line x1="16" y1="-20" x2="24" y2="-20" style="fill:none;stroke:rgb(0,0,0);stroke-linecap:square" />
<text x="4" y="-18" style="font:4px Dialog">110</text>
<line x1="16" y1="-40" x2="24" y2="-40" style="fill:none;stroke:rgb(0,0,0);stroke-linecap:square" />
<text x="4" y="-38" style="font:4px Dialog">120</text>
<line x1="16" y1="-60" x2="24" y2="-60" style="fill:none;stroke:rgb(0,0,0);stroke-linecap:square" />
<text x="4" y="-58" style="font:4px Dialog">130</text>
<line x1="16" y1="-80" x2="24" y2="-80" style="fill:none;stroke:rgb(0,0,0);stroke-linecap:square" />
<text x="4" y="-78" style="font:4px Dialog">140</text>
<line x1="16" y1="-100" x2="24" y2="-100" style="fill:none;stroke:rgb(0,0,0);stroke-linecap:square" />
<text x="4" y="-98" style="font:4px Dialog">150</text>
<line x1="16" y1="-120" x2="24" y2="-120" style="fill:none;stroke:rgb(0,0,0);stroke-linecap:square" />
<text x="4" y="-118" style="font:4px Dialog">160</text>
<line x1="16" y1="-140" x2="24" y2="-140" style="fill:none;stroke:rgb(0,0,0);stroke-linecap:square" />
<text x="4" y="-138" style="font:4px Dialog">170</text>
<line x1="16" y1="-160" x2="24" y2="-160" style="fill:none;stroke:rgb(0,0,0);stroke-linecap:square" />
<text x="4" y="-158" style="font:4px Dialog">180</text>
<line x1="16" y1="-180" x2="24" y2="-180" style="fill:none;stroke:rgb(0,0,0);stroke-linecap:square" />
<text x="4" y="-178" style="font:4px Dialog">190</text>
<line x1="136" y1="168" x2="137" y2="169" style="fill:none;stroke:rgb(0,0,0);stroke-linecap:square" />
<text x="139" y="170" style="font:4px Dialog">58,16</text>
<line x1="134" y1="96" x2="135" y2="97" style="fill:none;stroke:rgb(0,0,0);stroke-linecap:square" />
<text x="137" y="98" style="font:4px Dialog">57,52</text>
<line x1="78" y1="74" x2="79" y2="75" style="fill:none;stroke:rgb(0,0,0);stroke-linecap:square" />
<text x="81" y="76" style="font:4px Dialog">29,63</text>
<line x1="44" y1="68" x2="45" y2="69" style="fill:none;stroke:rgb(0,0,0);stroke-linecap:square" />
<text x="47" y="70" style="font:4px Dialog">12,66</text>
<line x1="150" y1="20" x2="151" y2="21" style="fill:none;stroke:rgb(0,0,0);stroke-linecap:square" />
<text x="153" y="22" style="font:4px Dialog">65,90</text>
<line x1="206" y1="162" x2="207" y2="163" style="fill:none;stroke:rgb(0,0,0);stroke-linecap:square" />
<text x="209" y="164" style="font:4px Dialog">93,19</text>
<line x1="160" y1="130" x2="161" y2="131" style="fill:none;stroke:rgb(0,0,0);stroke-linecap:square" />
<text x="163" y="132" style="font:4px Dialog">70,35</text>
<line x1="48" y1="118" x2="49" y2="119" style="fill:none;stroke:rgb(0,0,0);stroke-linecap:square" />
<text x="51" y="120" style="font:4px Dialog">14,41</text>
<line x1="110" y1="60" x2="111" y2="61" style="fill:none;stroke:rgb(0,0,0);stroke-linecap:square" />
<text x="113" y="62" style="font:4px Dialog">45,70</text>
<line x1="112" y1="88" x2="113" y2="89" style="fill:none;stroke:rgb(0,0,0);stroke-linecap:square" />
<text x="115" y="90" style="font:4px Dialog">46,56</text>
<line x1="130" y1="134" x2="131" y2="135" style="fill:none;stroke:rgb(0,0,0);stroke-linecap:square" />
<text x="133" y="136" style="font:4px Dialog">55,33</text>
<line x1="110" y1="172" x2="111" y2="173" style="fill:none;stroke:rgb(0,0,0);stroke-linecap:square" />
<text x="113" y="174" style="font:4px Dialog">45,14</text>
<line x1="160" y1="82" x2="161" y2="83" style="fill:none;stroke:rgb(0,0,0);stroke-linecap:square" />
<text x="163" y="84" style="font:4px Dialog">70,59</text>
<line x1="24" y1="122" x2="25" y2="123" style="fill:none;stroke:rgb(0,0,0);stroke-linecap:square" />
<text x="27" y="124" style="font:4px Dialog">2,39</text>
<line x1="52" y1="52" x2="53" y2="53" style="fill:none;stroke:rgb(0,0,0);stroke-linecap:square" />
<text x="55" y="54" style="font:4px Dialog">16,74</text>
<line x1="174" y1="158" x2="175" y2="159" style="fill:none;stroke:rgb(0,0,0);stroke-linecap:square" />
<text x="177" y="160" style="font:4px Dialog">77,21</text>
<line x1="140" y1="56" x2="141" y2="57" style="fill:none;stroke:rgb(0,0,0);stroke-linecap:square" />
<text x="143" y="58" style="font:4px Dialog">60,72</text>
<line x1="162" y1="90" x2="163" y2="91" style="fill:none;stroke:rgb(0,0,0);stroke-linecap:square" />
<text x="165" y="92" style="font:4px Dialog">71,55</text>
<line x1="154" y1="54" x2="155" y2="55" style="fill:none;stroke:rgb(0,0,0);stroke-linecap:square" />
<text x="157" y="56" style="font:4px Dialog">67,73</text>
<line x1="50" y1="50" x2="51" y2="51" style="fill:none;stroke:rgb(0,0,0);stroke-linecap:square" />
<text x="53" y="52" style="font:4px Dialog">15,75</text>
<line x1="26" y1="124" x2="27" y2="125" style="fill:none;stroke:rgb(0,0,0);stroke-linecap:square" />
<text x="29" y="126" style="font:4px Dialog">3,38</text>
<line x1="78" y1="96" x2="79" y2="97" style="fill:none;stroke:rgb(0,0,0);stroke-linecap:square" />
<text x="81" y="98" style="font:4px Dialog">29,52</text>
<line x1="140" y1="94" x2="141" y2="95" style="fill:none;stroke:rgb(0,0,0);stroke-linecap:square" />
<text x="143" y="96" style="font:4px Dialog">60,53</text>
<line x1="140" y1="152" x2="141" y2="153" style="fill:none;stroke:rgb(0,0,0);stroke-linecap:square" />
<text x="143" y="154" style="font:4px Dialog">60,24</text>
<line x1="38" y1="94" x2="39" y2="95" style="fill:none;stroke:rgb(0,0,0);stroke-linecap:square" />
<text x="41" y="96" style="font:4px Dialog">9,53</text>
<line x1="146" y1="178" x2="147" y2="179" style="fill:none;stroke:rgb(0,0,0);stroke-linecap:square" />
<text x="149" y="180" style="font:4px Dialog">63,11</text>
<line x1="74" y1="166" x2="75" y2="167" style="fill:none;stroke:rgb(0,0,0);stroke-linecap:square" />
<text x="77" y="168" style="font:4px Dialog">27,17</text>
<line x1="162" y1="156" x2="163" y2="157" style="fill:none;stroke:rgb(0,0,0);stroke-linecap:square" />
<text x="165" y="158" style="font:4px Dialog">71,22</text>
<line x1="118" y1="188" x2="119" y2="189" style="fill:none;stroke:rgb(0,0,0);stroke-linecap:square" />
<text x="121" y="190" style="font:4px Dialog">49,6</text>
<line x1="140" y1="186" x2="141" y2="187" style="fill:none;stroke:rgb(0,0,0);stroke-linecap:square" />
<text x="143" y="188" style="font:4px Dialog">60,7</text>
<line x1="134" y1="168" x2="135" y2="169" style="fill:none;stroke:rgb(0,0,0);stroke-linecap:square" />
<text x="137" y="170" style="font:4px Dialog">57,16</text>
<line x1="186" y1="10" x2="187" y2="11" style="fill:none;stroke:rgb(0,0,0);stroke-linecap:square" />
<text x="189" y="12" style="font:4px Dialog">83,95</text>
<line x1="92" y1="138" x2="93" y2="139" style="fill:none;stroke:rgb(0,0,0);stroke-linecap:square" />
<text x="95" y="140" style="font:4px Dialog">36,31</text>
<line x1="92" y1="14" x2="93" y2="15" style="fill:none;stroke:rgb(0,0,0);stroke-linecap:square" />
<text x="95" y="16" style="font:4px Dialog">36,93</text>
<line x1="182" y1="14" x2="183" y2="15" style="fill:none;stroke:rgb(0,0,0);stroke-linecap:square" />
<text x="185" y="16" style="font:4px Dialog">81,93</text>
<line x1="188" y1="110" x2="189" y2="111" style="fill:none;stroke:rgb(0,0,0);stroke-linecap:square" />
<text x="191" y="112" style="font:4px Dialog">84,45</text>
<line x1="134" y1="12" x2="135" y2="13" style="fill:none;stroke:rgb(0,0,0);stroke-linecap:square" />
<text x="137" y="14" style="font:4px Dialog">57,94</text>
<line x1="178" y1="120" x2="179" y2="121" style="fill:none;stroke:rgb(0,0,0);stroke-linecap:square" />
<text x="181" y="122" style="font:4px Dialog">79,40</text>
<line x1="24" y1="6" x2="25" y2="7" style="fill:none;stroke:rgb(0,0,0);stroke-linecap:square" />
<text x="27" y="8" style="font:4px Dialog">2,97</text>
<line x1="110" y1="106" x2="111" y2="107" style="fill:none;stroke:rgb(0,0,0);stroke-linecap:square" />
<text x="113" y="108" style="font:4px Dialog">45,47</text>
<line x1="148" y1="16" x2="149" y2="17" style="fill:none;stroke:rgb(0,0,0);stroke-linecap:square" />
<text x="151" y="18" style="font:4px Dialog">64,92</text>
<line x1="128" y1="200" x2="129" y2="201" style="fill:none;stroke:rgb(0,0,0);stroke-linecap:square" />
<text x="131" y="202" style="font:4px Dialog">54,0</text>
<line x1="142" y1="10" x2="143" y2="11" style="fill:none;stroke:rgb(0,0,0);stroke-linecap:square" />
<text x="145" y="12" style="font:4px Dialog">61,95</text>
<line x1="120" y1="2" x2="121" y2="3" style="fill:none;stroke:rgb(0,0,0);stroke-linecap:square" />
<text x="123" y="4" style="font:4px Dialog">50,99</text>
<line x1="160" y1="132" x2="161" y2="133" style="fill:none;stroke:rgb(0,0,0);stroke-linecap:square" />
<text x="163" y="134" style="font:4px Dialog">70,34</text>
<line x1="32" y1="36" x2="33" y2="37" style="fill:none;stroke:rgb(0,0,0);stroke-linecap:square" />
<text x="35" y="38" style="font:4px Dialog">6,82</text>
<line x1="88" y1="154" x2="89" y2="155" style="fill:none;stroke:rgb(0,0,0);stroke-linecap:square" />
<text x="91" y="156" style="font:4px Dialog">34,23</text>
<line x1="212" y1="98" x2="213" y2="99" style="fill:none;stroke:rgb(0,0,0);stroke-linecap:square" />
<text x="215" y="100" style="font:4px Dialog">96,51</text>
<line x1="80" y1="142" x2="81" y2="143" style="fill:none;stroke:rgb(0,0,0);stroke-linecap:square" />
<text x="83" y="144" style="font:4px Dialog">30,29</text>
<line x1="106" y1="86" x2="107" y2="87" style="fill:none;stroke:rgb(0,0,0);stroke-linecap:square" />
<text x="109" y="88" style="font:4px Dialog">43,57</text>
<line x1="36" y1="118" x2="37" y2="119" style="fill:none;stroke:rgb(0,0,0);stroke-linecap:square" />
<text x="39" y="120" style="font:4px Dialog">8,41</text>
<line x1="94" y1="142" x2="95" y2="143" style="fill:none;stroke:rgb(0,0,0);stroke-linecap:square" />
<text x="97" y="144" style="font:4px Dialog">37,29</text>
<line x1="172" y1="6" x2="173" y2="7" style="fill:none;stroke:rgb(0,0,0);stroke-linecap:square" />
<text x="175" y="8" style="font:4px Dialog">76,97</text>
<line x1="218" y1="118" x2="219" y2="119" style="fill:none;stroke:rgb(0,0,0);stroke-linecap:square" />
<text x="221" y="120" style="font:4px Dialog">99,41</text>
<line x1="166" y1="164" x2="167" y2="165" style="fill:none;stroke:rgb(0,0,0);stroke-linecap:square" />
<text x="169" y="166" style="font:4px Dialog">73,18</text>
<line x1="206" y1="180" x2="207" y2="181" style="fill:none;stroke:rgb(0,0,0);stroke-linecap:square" />
<text x="209" y="182" style="font:4px Dialog">93,10</text>
<line x1="142" y1="26" x2="143" y2="27" style="fill:none;stroke:rgb(0,0,0);stroke-linecap:square" />
<text x="145" y="28" style="font:4px Dialog">61,87</text>
<line x1="218" y1="184" x2="219" y2="185" style="fill:none;stroke:rgb(0,0,0);stroke-linecap:square" />
<text x="221" y="186" style="font:4px Dialog">99,8</text>
<line x1="92" y1="138" x2="93" y2="139" style="fill:none;stroke:rgb(0,0,0);stroke-linecap:square" />
<text x="95" y="140" style="font:4px Dialog">36,31</text>
<line x1="144" y1="152" x2="145" y2="153" style="fill:none;stroke:rgb(0,0,0);stroke-linecap:square" />
<text x="147" y="154" style="font:4px Dialog">62,24</text>
<line x1="62" y1="86" x2="63" y2="87" style="fill:none;stroke:rgb(0,0,0);stroke-linecap:square" />
<text x="65" y="88" style="font:4px Dialog">21,57</text>
<line x1="180" y1="128" x2="181" y2="129" style="fill:none;stroke:rgb(0,0,0);stroke-linecap:square" />
<text x="183" y="130" style="font:4px Dialog">80,36</text>
<line x1="84" y1="100" x2="85" y2="101" style="fill:none;stroke:rgb(0,0,0);stroke-linecap:square" />
<text x="87" y="102" style="font:4px Dialog">32,50</text>
<line x1="200" y1="8" x2="201" y2="9" style="fill:none;stroke:rgb(0,0,0);stroke-linecap:square" />
<text x="203" y="10" style="font:4px Dialog">90,96</text>
<line x1="108" y1="76" x2="109" y2="77" style="fill:none;stroke:rgb(0,0,0);stroke-linecap:square" />
<text x="111" y="78" style="font:4px Dialog">44,62</text>
<line x1="108" y1="16" x2="109" y2="17" style="fill:none;stroke:rgb(0,0,0);stroke-linecap:square" />
<text x="111" y="18" style="font:4px Dialog">44,92</text>
<line x1="30" y1="32" x2="31" y2="33" style="fill:none;stroke:rgb(0,0,0);stroke-linecap:square" />
<text x="33" y="34" style="font:4px Dialog">5,84</text>
<line x1="34" y1="118" x2="35" y2="119" style="fill:none;stroke:rgb(0,0,0);stroke-linecap:square" />
<text x="37" y="120" style="font:4px Dialog">7,41</text>
<line x1="102" y1="118" x2="103" y2="119" style="fill:none;stroke:rgb(0,0,0);stroke-linecap:square" />
<text x="105" y="120" style="font:4px Dialog">41,41</text>
<line x1="90" y1="182" x2="91" y2="183" style="fill:none;stroke:rgb(0,0,0);stroke-linecap:square" />
<text x="93" y="184" style="font:4px Dialog">35,9</text>
<line x1="146" y1="74" x2="147" y2="75" style="fill:none;stroke:rgb(0,0,0);stroke-linecap:square" />
<text x="149" y="76" style="font:4px Dialog">63,63</text>
<line x1="42" y1="38" x2="43" y2="39" style="fill:none;stroke:rgb(0,0,0);stroke-linecap:square" />
<text x="45" y="40" style="font:4px Dialog">11,81</text>
<line x1="72" y1="174" x2="73" y2="175" style="fill:none;stroke:rgb(0,0,0);stroke-linecap:square" />
<text x="75" y="176" style="font:4px Dialog">26,13</text>
<line x1="182" y1="180" x2="183" y2="181" style="fill:none;stroke:rgb(0,0,0);stroke-linecap:square" />
<text x="185" y="182" style="font:4px Dialog">81,10</text>
<line x1="120" y1="200" x2="121" y2="201" style="fill:none;stroke:rgb(0,0,0);stroke-linecap:square" />
<text x="123" y="202" style="font:4px Dialog">50,0</text>
<line x1="148" y1="92" x2="149" y2="93" style="fill:none;stroke:rgb(0,0,0);stroke-linecap:square" />
<text x="151" y="94" style="font:4px Dialog">64,54</text>
<line x1="138" y1="180" x2="139" y2="181" style="fill:none;stroke:rgb(0,0,0);stroke-linecap:square" />
<text x="141" y="182" style="font:4px Dialog">59,10</text>
<line x1="90" y1="46" x2="91" y2="47" style="fill:none;stroke:rgb(0,0,0);stroke-linecap:square" />
<text x="93" y="48" style="font:4px Dialog">35,77</text>
<line x1="170" y1="66" x2="171" y2="67" style="fill:none;stroke:rgb(0,0,0);stroke-linecap:square" />
<text x="173" y="68" style="font:4px Dialog">75,67</text>
<line x1="138" y1="162" x2="139" y2="163" style="fill:none;stroke:rgb(0,0,0);stroke-linecap:square" />
<text x="141" y="164" style="font:4px Dialog">59,19</text>
<line x1="58" y1="158" x2="59" y2="159" style="fill:none;stroke:rgb(0,0,0);stroke-linecap:square" />
<text x="61" y="160" style="font:4px Dialog">19,21</text>
<line x1="214" y1="52" x2="215" y2="53" style="fill:none;stroke:rgb(0,0,0);stroke-linecap:square" />
<text x="217" y="54" style="font:4px Dialog">97,74</text>
<line x1="28" y1="54" x2="29" y2="55" style="fill:none;stroke:rgb(0,0,0);stroke-linecap:square" />
<text x="31" y="56" style="font:4px Dialog">4,73</text>
</svg>
