<?xml version="1.0" encoding="UTF-8"?>
<!DOCTYPE svg PUBLIC "-//W3C//DTD SVG 1.1//EN" "http://www.w3.org/Graphics/SVG/1.1/DTD/svg11.dtd">
<svg version="1.2" xmlns="http://www.w3.org/2000/svg" xmlns:xlink="http://www.w3.org/1999/xlink" x="0mm" y="0mm" width="400mm" height="400mm" viewBox="0 0 400 400">
<style type="text/css"><![CDATA[
text { font:12px Dialog; }
]]></style>
<line x1="20" y1="200" x2="420" y2="200" style="fill:none;stroke:rgb(0,0,0);stroke-linecap:square" />
<line x1="20" y1="200" x2="20" y2="-200" style="fill:none;stroke:rgb(0,0,0);stroke-linecap:square" />
<line x1="20" y1="204" x2="20" y2="196" style="fill:none;stroke:rgb(0,0,0);stroke-linecap:square" />
<line x1="40" y1="204" x2="40" y2="196" style="fill:none;stroke:rgb(0,0,0);stroke-linecap:square" />
<text x="37" y="206" style="font:4px Dialog">10</text>
<line x1="60" y1="204" x2="60" y2="196" style="fill:none;stroke:rgb(0,0,0);stroke-linecap:square" />
<text x="57" y="206" style="font:4px Dialog">20</text>
<line x1="80" y1="204" x2="80" y2="196" style="fill:none;stroke:rgb(0,0,0);stroke-linecap:square" />
<text x="77" y="206" style="font:4px Dialog">30</text>
<line x1="100" y1="204" x2="100" y2="196" style="fill:none;stroke:rgb(0,0,0);stroke-linecap:square" />
<text x="97" y="206" style="font:4px Dialog">40</text>
<line x1="120" y1="204" x2="120" y2="196" style="fill:none;stroke:rgb(0,0,0);stroke-linecap:square" />
<text x="117" y="206" style="font:4px Dialog">50</text>
<line x1="140" y1="204" x2="140" y2="196" style="fill:none;stroke:rgb(0,0,0);stroke-linecap:square" />
<text x="137" y="206" style="font:4px Dialog">60</text>
<line x1="160" y1="204" x2="160" y2="196" style="fill:none;stroke:rgb(0,0,0);stroke-linecap:square" />
<text x="157" y="206" style="font:4px Dialog">70</text>
<line x1="180" y1="204" x2="180" y2="196" style="fill:none;stroke:rgb(0,0,0);stroke-linecap:square" />
<text x="177" y="206" style="font:4px Dialog">80</text>
<line x1="200" y1="204" x2="200" y2="196" style="fill:none;stroke:rgb(0,0,0);stroke-linecap:square" />
<text x="197" y="206" style="font:4px Dialog">90</text>
<line x1="220" y1="204" x2="220" y2="196" style="fill:none;stroke:rgb(0,0,0);stroke-linecap:square" />
<text x="217" y="206" style="font:4px Dialog">100</text>
<line x1="240" y1="204" x2="240" y2="196" style="fill:none;stroke:rgb(0,0,0);stroke-linecap:square" />
<text x="237" y="206" style="font:4px Dialog">110</text>
<line x1="260" y1="204" x2="260" y2="196" style="fill:none;stroke:rgb(0,0,0);stroke-linecap:square" />
<text x="257" y="206" style="font:4px Dialog">120</text>
<line x1="280" y1="204" x2="280" y2="196" style="fill:none;stroke:rgb(0,0,0);stroke-linecap:square" />
<text x="277" y="206" style="font:4px Dialog">130</text>
<line x1="300" y1="204" x2="300" y2="196" style="fill:none;stroke:rgb(0,0,0);stroke-linecap:square" />
<text x="297" y="206" style="font:4px Dialog">140</text>
<line x1="320" y1="204" x2="320" y2="196" style="fill:none;stroke:rgb(0,0,0);stroke-linecap:square" />
<text x="317" y="206" style="font:4px Dialog">150</text>
<line x1="340" y1="204" x2="340" y2="196" style="fill:none;stroke:rgb(0,0,0);stroke-linecap:square" />
<text x="337" y="206" style="font:4px Dialog">160</text>
<line x1="360" y1="204" x2="360" y2="196" style="fill:none;stroke:rgb(0,0,0);stroke-linecap:square" />
<text x="357" y="206" style="font:4px Dialog">170</text>
<line x1="380" y1="204" x2="380" y2="196" style="fill:none;stroke:rgb(0,0,0);stroke-linecap:square" />
<text x="377" y="206" style="font:4px Dialog">180</text>
<line x1="400" y1="204" x2="400" y2="196" style="fill:none;stroke:rgb(0,0,0);stroke-linecap:square" />
<text x="397" y="206" style="font:4px Dialog">190</text>
<line x1="16" y1="200" x2="24" y2="200" style="fill:none;stroke:rgb(0,0,0);stroke-linecap:square" />
<line x1="16" y1="180" x2="24" y2="180" style="fill:none;stroke:rgb(0,0,0);stroke-linecap:square" />
<text x="4" y="182" style="font:4px Dialog">10</text>
<line x1="16" y1="160" x2="24" y2="160" style="fill:none;stroke:rgb(0,0,0);stroke-linecap:square" />
<text x="4" y="162" style="font:4px Dialog">20</text>
<line x1="16" y1="140" x2="24" y2="140" style="fill:none;stroke:rgb(0,0,0);stroke-linecap:square" />
<text x="4" y="142" style="font:4px Dialog">30</text>
<line x1="16" y1="120" x2="24" y2="120" style="fill:none;stroke:rgb(0,0,0);stroke-linecap:square" />
<text x="4" y="122" style="font:4px Dialog">40</text>
<line x1="16" y1="100" x2="24" y2="100" style="fill:none;stroke:rgb(0,0,0);stroke-linecap:square" />
<text x="4" y="102" style="font:4px Dialog">50</text>
<line x1="16" y1="80" x2="24" y2="80" style="fill:none;stroke:rgb(0,0,0);stroke-linecap:square" />
<text x="4" y="82" style="font:4px Dialog">60</text>
<line x1="16" y1="60" x2="24" y2="60" style="fill:none;stroke:rgb(0,0,0);stroke-linecap:square" />
<text x="4" y="62" style="font:4px Dialog">70</text>
<line x1="16" y1="40" x2="24" y2="40" style="fill:none;stroke:rgb(0,0,0);stroke-linecap:square" />
<text x="4" y="42" style="font:4px Dialog">80</text>
<line x1="16" y1="20" x2="24" y2="20" style="fill:none;stroke:rgb(0,0,0);stroke-linecap:square" />
<text x="4" y="22" style="font:4px Dialog">90</text>
<line x1="16" y1="0" x2="24" y2="0" style="fill:none;stroke:rgb(0,0,0);stroke-linecap:square" />
<text x="4" y="2" style="font:4px Dialog">100</text>
<line x1="16" y1="-20" x2="24" y2="-20" style="fill:none;stroke:rgb(0,0,0);stroke-linecap:square" />
<text x="4" y="-18" style="font:4px Dialog">110</text>
<line x1="16" y1="-40" x2="24" y2="-40" style="fill:none;stroke:rgb(0,0,0);stroke-linecap:square" />
<text x="4" y="-38" style="font:4px Dialog">120</text>
<line x1="16" y1="-60" x2="24" y2="-60" style="fill:none;stroke:rgb(0,0,0);stroke-linecap:square" />
<text x="4" y="-58" style="font:4px Dialog">130</text>
<line x1="16" y1="-80" x2="24" y2="-80" style="fill:none;stroke:rgb(0,0,0);stroke-linecap:square" />
<text x="4" y="-78" style="font:4px Dialog">140</text>
<line x1="16" y1="-100" x2="24" y2="-100" style="fill:none;stroke:rgb(0,0,0);stroke-linecap:square" />
<text x="4" y="-98" style="font:4px Dialog">150</text>
<line x1="16" y1="-120" x2="24" y2="-120" style="fill:none;stroke:rgb(0,0,0);stroke-linecap:square" />
<text x="4" y="-118" style="font:4px Dialog">160</text>
<line x1="16" y1="-140" x2="24" y2="-140" style="fill:none;stroke:rgb(0,0,0);stroke-linecap:square" />
<text x="4" y="-138" style="font:4px Dialog">170</text>
<line x1="16" y1="-160" x2="24" y2="-160" style="fill:none;stroke:rgb(0,0,0);stroke-linecap:square" />
<text x="4" y="-158" style="font:4px Dialog">180</text>
<line x1="16" y1="-180" x2="24" y2="-180" style="fill:none;stroke:rgb(0,0,0);stroke-linecap:square" />
<text x="4" y="-178" style="font:4px Dialog">190</text>
<line x1="154" y1="140" x2="155" y2="141" style="fill:none;stroke:rgb(0,0,0);stroke-linecap:square" />
<text x="157" y="142" style="font:4px Dialog">67,30</text>
<line x1="174" y1="18" x2="175" y2="19" style="fill:none;stroke:rgb(0,0,0);stroke-linecap:square" />
<text x="177" y="20" style="font:4px Dialog">77,91</text>
<line x1="104" y1="134" x2="105" y2="135" style="fill:none;stroke:rgb(0,0,0);stroke-linecap:square" />
<text x="107" y="136" style="font:4px Dialog">42,33</text>
<line x1="72" y1="4" x2="73" y2="5" style="fill:none;stroke:rgb(0,0,0);stroke-linecap:square" />
<text x="75" y="6" style="font:4px Dialog">26,98</text>
<line x1="96" y1="110" x2="97" y2="111" style="fill:none;stroke:rgb(0,0,0);stroke-linecap:square" />
<text x="99" y="112" style="font:4px Dialog">38,45</text>
<line x1="194" y1="34" x2="195" y2="35" style="fill:none;stroke:rgb(0,0,0);stroke-linecap:square" />
<text x="197" y="36" style="font:4px Dialog">87,83</text>
<line x1="150" y1="116" x2="151" y2="117" style="fill:none;stroke:rgb(0,0,0);stroke-linecap:square" />
<text x="153" y="118" style="font:4px Dialog">65,42</text>
<line x1="56" y1="48" x2="57" y2="49" style="fill:none;stroke:rgb(0,0,0);stroke-linecap:square" />
<text x="59" y="50" style="font:4px Dialog">18,76</text>
<line x1="186" y1="116" x2="187" y2="117" style="fill:none;stroke:rgb(0,0,0);stroke-linecap:square" />
<text x="189" y="118" style="font:4px Dialog">83,42</text>
<line x1="140" y1="102" x2="141" y2="103" style="fill:none;stroke:rgb(0,0,0);stroke-linecap:square" />
<text x="143" y="104" style="font:4px Dialog">60,49</text>
<line x1="100" y1="36" x2="101" y2="37" style="fill:none;stroke:rgb(0,0,0);stroke-linecap:square" />
<text x="103" y="38" style="font:4px Dialog">40,82</text>
<line x1="134" y1="178" x2="135" y2="179" style="fill:none;stroke:rgb(0,0,0);stroke-linecap:square" />
<text x="137" y="180" style="font:4px Dialog">57,11</text>
<line x1="110" y1="126" x2="111" y2="127" style="fill:none;stroke:rgb(0,0,0);stroke-linecap:square" />
<text x="113" y="128" style="font:4px Dialog">45,37</text>
<line x1="42" y1="186" x2="43" y2="187" style="fill:none;stroke:rgb(0,0,0);stroke-linecap:square" />
<text x="45" y="188" style="font:4px Dialog">11,7</text>
<line x1="176" y1="146" x2="177" y2="147" style="fill:none;stroke:rgb(0,0,0);stroke-linecap:square" />
<text x="179" y="148" style="font:4px Dialog">78,27</text>
<line x1="136" y1="88" x2="137" y2="89" style="fill:none;stroke:rgb(0,0,0);stroke-linecap:square" />
<text x="139" y="90" style="font:4px Dialog">58,56</text>
<line x1="60" y1="164" x2="61" y2="165" style="fill:none;stroke:rgb(0,0,0);stroke-linecap:square" />
<text x="63" y="166" style="font:4px Dialog">20,18</text>
<line x1="32" y1="80" x2="33" y2="81" style="fill:none;stroke:rgb(0,0,0);stroke-linecap:square" />
<text x="35" y="82" style="font:4px Dialog">6,60</text>
<line x1="166" y1="174" x2="167" y2="175" style="fill:none;stroke:rgb(0,0,0);stroke-linecap:square" />
<text x="169" y="176" style="font:4px Dialog">73,13</text>
<line x1="68" y1="116" x2="69" y2="117" style="fill:none;stroke:rgb(0,0,0);stroke-linecap:square" />
<text x="71" y="118" style="font:4px Dialog">24,42</text>
<line x1="70" y1="178" x2="71" y2="179" style="fill:none;stroke:rgb(0,0,0);stroke-linecap:square" />
<text x="73" y="180" style="font:4px Dialog">25,11</text>
<line x1="174" y1="2" x2="175" y2="3" style="fill:none;stroke:rgb(0,0,0);stroke-linecap:square" />
<text x="177" y="4" style="font:4px Dialog">77,99</text>
<line x1="180" y1="30" x2="181" y2="31" style="fill:none;stroke:rgb(0,0,0);stroke-linecap:square" />
<text x="183" y="32" style="font:4px Dialog">80,85</text>
<line x1="172" y1="56" x2="173" y2="57" style="fill:none;stroke:rgb(0,0,0);stroke-linecap:square" />
<text x="175" y="58" style="font:4px Dialog">76,72</text>
<line x1="90" y1="90" x2="91" y2="91" style="fill:none;stroke:rgb(0,0,0);stroke-linecap:square" />
<text x="93" y="92" style="font:4px Dialog">35,55</text>
<line x1="66" y1="50" x2="67" y2="51" style="fill:none;stroke:rgb(0,0,0);stroke-linecap:square" />
<text x="69" y="52" style="font:4px Dialog">23,75</text>
<line x1="158" y1="58" x2="159" y2="59" style="fill:none;stroke:rgb(0,0,0);stroke-linecap:square" />
<text x="161" y="60" style="font:4px Dialog">69,71</text>
<line x1="48" y1="92" x2="49" y2="93" style="fill:none;stroke:rgb(0,0,0);stroke-linecap:square" />
<text x="51" y="94" style="font:4px Dialog">14,54</text>
<line x1="94" y1="44" x2="95" y2="45" style="fill:none;stroke:rgb(0,0,0);stroke-linecap:square" />
<text x="97" y="46" style="font:4px Dialog">37,78</text>
<line x1="168" y1="70" x2="169" y2="71" style="fill:none;stroke:rgb(0,0,0);stroke-linecap:square" />
<text x="171" y="72" style="font:4px Dialog">74,65</text>
<line x1="92" y1="26" x2="93" y2="27" style="fill:none;stroke:rgb(0,0,0);stroke-linecap:square" />
<text x="95" y="28" style="font:4px Dialog">36,87</text>
<line x1="216" y1="136" x2="217" y2="137" style="fill:none;stroke:rgb(0,0,0);stroke-linecap:square" />
<text x="219" y="138" style="font:4px Dialog">98,32</text>
<line x1="120" y1="198" x2="121" y2="199" style="fill:none;stroke:rgb(0,0,0);stroke-linecap:square" />
<text x="123" y="200" style="font:4px Dialog">50,1</text>
<line x1="142" y1="78" x2="143" y2="79" style="fill:none;stroke:rgb(0,0,0);stroke-linecap:square" />
<text x="145" y="80" style="font:4px Dialog">61,61</text>
<line x1="64" y1="116" x2="65" y2="117" style="fill:none;stroke:rgb(0,0,0);stroke-linecap:square" />
<text x="67" y="118" style="font:4px Dialog">22,42</text>
<line x1="48" y1="138" x2="49" y2="139" style="fill:none;stroke:rgb(0,0,0);stroke-linecap:square" />
<text x="51" y="140" style="font:4px Dialog">14,31</text>
<line x1="66" y1="112" x2="67" y2="113" style="fill:none;stroke:rgb(0,0,0);stroke-linecap:square" />
<text x="69" y="114" style="font:4px Dialog">23,44</text>
<line x1="70" y1="92" x2="71" y2="93" style="fill:none;stroke:rgb(0,0,0);stroke-linecap:square" />
<text x="73" y="94" style="font:4px Dialog">25,54</text>
<line x1="126" y1="42" x2="127" y2="43" style="fill:none;stroke:rgb(0,0,0);stroke-linecap:square" />
<text x="129" y="44" style="font:4px Dialog">53,79</text>
<line x1="114" y1="162" x2="115" y2="163" style="fill:none;stroke:rgb(0,0,0);stroke-linecap:square" />
<text x="117" y="164" style="font:4px Dialog">47,19</text>
<line x1="34" y1="8" x2="35" y2="9" style="fill:none;stroke:rgb(0,0,0);stroke-linecap:square" />
<text x="37" y="10" style="font:4px Dialog">7,96</text>
<line x1="112" y1="2" x2="113" y2="3" style="fill:none;stroke:rgb(0,0,0);stroke-linecap:square" />
<text x="115" y="4" style="font:4px Dialog">46,99</text>
<line x1="102" y1="38" x2="103" y2="39" style="fill:none;stroke:rgb(0,0,0);stroke-linecap:square" />
<text x="105" y="40" style="font:4px Dialog">41,81</text>
<line x1="186" y1="48" x2="187" y2="49" style="fill:none;stroke:rgb(0,0,0);stroke-linecap:square" />
<text x="189" y="50" style="font:4px Dialog">83,76</text>
<line x1="138" y1="62" x2="139" y2="63" style="fill:none;stroke:rgb(0,0,0);stroke-linecap:square" />
<text x="141" y="64" style="font:4px Dialog">59,69</text>
<line x1="178" y1="76" x2="179" y2="77" style="fill:none;stroke:rgb(0,0,0);stroke-linecap:square" />
<text x="181" y="78" style="font:4px Dialog">79,62</text>
<line x1="168" y1="132" x2="169" y2="133" style="fill:none;stroke:rgb(0,0,0);stroke-linecap:square" />
<text x="171" y="134" style="font:4px Dialog">74,34</text>
<line x1="70" y1="16" x2="71" y2="17" style="fill:none;stroke:rgb(0,0,0);stroke-linecap:square" />
<text x="73" y="18" style="font:4px Dialog">25,92</text>
<line x1="86" y1="70" x2="87" y2="71" style="fill:none;stroke:rgb(0,0,0);stroke-linecap:square" />
<text x="89" y="72" style="font:4px Dialog">33,65</text>
<line x1="88" y1="182" x2="89" y2="183" style="fill:none;stroke:rgb(0,0,0);stroke-linecap:square" />
<text x="91" y="184" style="font:4px Dialog">34,9</text>
<line x1="36" y1="192" x2="37" y2="193" style="fill:none;stroke:rgb(0,0,0);stroke-linecap:square" />
<text x="39" y="194" style="font:4px Dialog">8,4</text>
<line x1="142" y1="104" x2="143" y2="105" style="fill:none;stroke:rgb(0,0,0);stroke-linecap:square" />
<text x="145" y="106" style="font:4px Dialog">61,48</text>
<line x1="118" y1="184" x2="119" y2="185" style="fill:none;stroke:rgb(0,0,0);stroke-linecap:square" />
<text x="121" y="186" style="font:4px Dialog">49,8</text>
<line x1="94" y1="48" x2="95" y2="49" style="fill:none;stroke:rgb(0,0,0);stroke-linecap:square" />
<text x="97" y="50" style="font:4px Dialog">37,76</text>
<line x1="72" y1="4" x2="73" y2="5" style="fill:none;stroke:rgb(0,0,0);stroke-linecap:square" />
<text x="75" y="6" style="font:4px Dialog">26,98</text>
<line x1="138" y1="90" x2="139" y2="91" style="fill:none;stroke:rgb(0,0,0);stroke-linecap:square" />
<text x="141" y="92" style="font:4px Dialog">59,55</text>
<line x1="162" y1="152" x2="163" y2="153" style="fill:none;stroke:rgb(0,0,0);stroke-linecap:square" />
<text x="165" y="154" style="font:4px Dialog">71,24</text>
<line x1="98" y1="146" x2="99" y2="147" style="fill:none;stroke:rgb(0,0,0);stroke-linecap:square" />
<text x="101" y="148" style="font:4px Dialog">39,27</text>
<line x1="70" y1="12" x2="71" y2="13" style="fill:none;stroke:rgb(0,0,0);stroke-linecap:square" />
<text x="73" y="14" style="font:4px Dialog">25,94</text>
<line x1="126" y1="90" x2="127" y2="91" style="fill:none;stroke:rgb(0,0,0);stroke-linecap:square" />
<text x="129" y="92" style="font:4px Dialog">53,55</text>
<line x1="28" y1="34" x2="29" y2="35" style="fill:none;stroke:rgb(0,0,0);stroke-linecap:square" />
<text x="31" y="36" style="font:4px Dialog">4,83</text>
<line x1="196" y1="2" x2="197" y2="3" style="fill:none;stroke:rgb(0,0,0);stroke-linecap:square" />
<text x="199" y="4" style="font:4px Dialog">88,99</text>
<line x1="152" y1="60" x2="153" y2="61" style="fill:none;stroke:rgb(0,0,0);stroke-linecap:square" />
<text x="155" y="62" style="font:4px Dialog">66,70</text>
<line x1="110" y1="192" x2="111" y2="193" style="fill:none;stroke:rgb(0,0,0);stroke-linecap:square" />
<text x="113" y="194" style="font:4px Dialog">45,4</text>
<line x1="60" y1="154" x2="61" y2="155" style="fill:none;stroke:rgb(0,0,0);stroke-linecap:square" />
<text x="63" y="156" style="font:4px Dialog">20,23</text>
<line x1="164" y1="26" x2="165" y2="27" style="fill:none;stroke:rgb(0,0,0);stroke-linecap:square" />
<text x="167" y="28" style="font:4px Dialog">72,87</text>
<line x1="164" y1="56" x2="165" y2="57" style="fill:none;stroke:rgb(0,0,0);stroke-linecap:square" />
<text x="167" y="58" style="font:4px Dialog">72,72</text>
<line x1="120" y1="34" x2="121" y2="35" style="fill:none;stroke:rgb(0,0,0);stroke-linecap:square" />
<text x="123" y="36" style="font:4px Dialog">50,83</text>
<line x1="134" y1="148" x2="135" y2="149" style="fill:none;stroke:rgb(0,0,0);stroke-linecap:square" />
<text x="137" y="150" style="font:4px Dialog">57,26</text>
<line x1="178" y1="180" x2="179" y2="181" style="fill:none;stroke:rgb(0,0,0);stroke-linecap:square" />
<text x="181" y="182" style="font:4px Dialog">79,10</text>
<line x1="174" y1="36" x2="175" y2="37" style="fill:none;stroke:rgb(0,0,0);stroke-linecap:square" />
<text x="177" y="38" style="font:4px Dialog">77,82</text>
<line x1="118" y1="136" x2="119" y2="137" style="fill:none;stroke:rgb(0,0,0);stroke-linecap:square" />
<text x="121" y="138" style="font:4px Dialog">49,32</text>
<line x1="106" y1="182" x2="107" y2="183" style="fill:none;stroke:rgb(0,0,0);stroke-linecap:square" />
<text x="109" y="184" style="font:4px Dialog">43,9</text>
<line x1="140" y1="52" x2="141" y2="53" style="fill:none;stroke:rgb(0,0,0);stroke-linecap:square" />
<text x="143" y="54" style="font:4px Dialog">60,74</text>
<line x1="124" y1="14" x2="125" y2="15" style="fill:none;stroke:rgb(0,0,0);stroke-linecap:square" />
<text x="127" y="16" style="font:4px Dialog">52,93</text>
<line x1="78" y1="32" x2="79" y2="33" style="fill:none;stroke:rgb(0,0,0);stroke-linecap:square" />
<text x="81" y="34" style="font:4px Dialog">29,84</text>
<line x1="158" y1="80" x2="159" y2="81" style="fill:none;stroke:rgb(0,0,0);stroke-linecap:square" />
<text x="161" y="82" style="font:4px Dialog">69,60</text>
<line x1="176" y1="172" x2="177" y2="173" style="fill:none;stroke:rgb(0,0,0);stroke-linecap:square" />
<text x="179" y="174" style="font:4px Dialog">78,14</text>
<line x1="154" y1="182" x2="155" y2="183" style="fill:none;stroke:rgb(0,0,0);stroke-linecap:square" />
<text x="157" y="184" style="font:4px Dialog">67,9</text>
</svg>
