<?xml version="1.0" encoding="UTF-8"?>
<!DOCTYPE svg PUBLIC "-//W3C//DTD SVG 1.1//EN" "http://www.w3.org/Graphics/SVG/1.1/DTD/svg11.dtd">
<svg version="1.2" xmlns="http://www.w3.org/2000/svg" xmlns:xlink="http://www.w3.org/1999/xlink" x="0mm" y="0mm" width="400mm" height="400mm" viewBox="0 0 400 400">
<style type="text/css"><![CDATA[
text { font:12px Dialog; }
]]></style>
<line x1="20" y1="200" x2="420" y2="200" style="fill:none;stroke:rgb(0,0,0);stroke-linecap:square" />
<line x1="20" y1="200" x2="20" y2="-200" style="fill:none;stroke:rgb(0,0,0);stroke-linecap:square" />
<line x1="20" y1="204" x2="20" y2="196" style="fill:none;stroke:rgb(0,0,0);stroke-linecap:square" />
<line x1="40" y1="204" x2="40" y2="196" style="fill:none;stroke:rgb(0,0,0);stroke-linecap:square" />
<text x="37" y="206" style="font:4px Dialog">10</text>
<line x1="60" y1="204" x2="60" y2="196" style="fill:none;stroke:rgb(0,0,0);stroke-linecap:square" />
<text x="57" y="206" style="font:4px Dialog">20</text>
<line x1="80" y1="204" x2="80" y2="196" style="fill:none;stroke:rgb(0,0,0);stroke-linecap:square" />
<text x="77" y="206" style="font:4px Dialog">30</text>
<line x1="100" y1="204" x2="100" y2="196" style="fill:none;stroke:rgb(0,0,0);stroke-linecap:square" />
<text x="97" y="206" style="font:4px Dialog">40</text>
<line x1="120" y1="204" x2="120" y2="196" style="fill:none;stroke:rgb(0,0,0);stroke-linecap:square" />
<text x="117" y="206" style="font:4px Dialog">50</text>
<line x1="140" y1="204" x2="140" y2="196" style="fill:none;stroke:rgb(0,0,0);stroke-linecap:square" />
<text x="137" y="206" style="font:4px Dialog">60</text>
<line x1="160" y1="204" x2="160" y2="196" style="fill:none;stroke:rgb(0,0,0);stroke-linecap:square" />
<text x="157" y="206" style="font:4px Dialog">70</text>
<line x1="180" y1="204" x2="180" y2="196" style="fill:none;stroke:rgb(0,0,0);stroke-linecap:square" />
<text x="177" y="206" style="font:4px Dialog">80</text>
<line x1="200" y1="204" x2="200" y2="196" style="fill:none;stroke:rgb(0,0,0);stroke-linecap:square" />
<text x="197" y="206" style="font:4px Dialog">90</text>
<line x1="220" y1="204" x2="220" y2="196" style="fill:none;stroke:rgb(0,0,0);stroke-linecap:square" />
<text x="217" y="206" style="font:4px Dialog">100</text>
<line x1="240" y1="204" x2="240" y2="196" style="fill:none;stroke:rgb(0,0,0);stroke-linecap:square" />
<text x="237" y="206" style="font:4px Dialog">110</text>
<line x1="260" y1="204" x2="260" y2="196" style="fill:none;stroke:rgb(0,0,0);stroke-linecap:square" />
<text x="257" y="206" style="font:4px Dialog">120</text>
<line x1="280" y1="204" x2="280" y2="196" style="fill:none;stroke:rgb(0,0,0);stroke-linecap:square" />
<text x="277" y="206" style="font:4px Dialog">130</text>
<line x1="300" y1="204" x2="300" y2="196" style="fill:none;stroke:rgb(0,0,0);stroke-linecap:square" />
<text x="297" y="206" style="font:4px Dialog">140</text>
<line x1="320" y1="204" x2="320" y2="196" style="fill:none;stroke:rgb(0,0,0);stroke-linecap:square" />
<text x="317" y="206" style="font:4px Dialog">150</text>
<line x1="340" y1="204" x2="340" y2="196" style="fill:none;stroke:rgb(0,0,0);stroke-linecap:square" />
<text x="337" y="206" style="font:4px Dialog">160</text>
<line x1="360" y1="204" x2="360" y2="196" style="fill:none;stroke:rgb(0,0,0);stroke-linecap:square" />
<text x="357" y="206" style="font:4px Dialog">170</text>
<line x1="380" y1="204" x2="380" y2="196" style="fill:none;stroke:rgb(0,0,0);stroke-linecap:square" />
<text x="377" y="206" style="font:4px Dialog">180</text>
<line x1="400" y1="204" x2="400" y2="196" style="fill:none;stroke:rgb(0,0,0);stroke-linecap:square" />
<text x="397" y="206" style="font:4px Dialog">190</text>
<line x1="16" y1="200" x2="24" y2="200" style="fill:none;stroke:rgb(0,0,0);stroke-linecap:square" />
<line x1="16" y1="180" x2="24" y2="180" style="fill:none;stroke:rgb(0,0,0);stroke-linecap:square" />
<text x="4" y="182" style="font:4px Dialog">10</text>
<line x1="16" y1="160" x2="24" y2="160" style="fill:none;stroke:rgb(0,0,0);stroke-linecap:square" />
<text x="4" y="162" style="font:4px Dialog">20</text>
<line x1="16" y1="140" x2="24" y2="140" style="fill:none;stroke:rgb(0,0,0);stroke-linecap:square" />
<text x="4" y="142" style="font:4px Dialog">30</text>
<line x1="16" y1="120" x2="24" y2="120" style="fill:none;stroke:rgb(0,0,0);stroke-linecap:square" />
<text x="4" y="122" style="font:4px Dialog">40</text>
<line x1="16" y1="100" x2="24" y2="100" style="fill:none;stroke:rgb(0,0,0);stroke-linecap:square" />
<text x="4" y="102" style="font:4px Dialog">50</text>
<line x1="16" y1="80" x2="24" y2="80" style="fill:none;stroke:rgb(0,0,0);stroke-linecap:square" />
<text x="4" y="82" style="font:4px Dialog">60</text>
<line x1="16" y1="60" x2="24" y2="60" style="fill:none;stroke:rgb(0,0,0);stroke-linecap:square" />
<text x="4" y="62" style="font:4px Dialog">70</text>
<line x1="16" y1="40" x2="24" y2="40" style="fill:none;stroke:rgb(0,0,0);stroke-linecap:square" />
<text x="4" y="42" style="font:4px Dialog">80</text>
<line x1="16" y1="20" x2="24" y2="20" style="fill:none;stroke:rgb(0,0,0);stroke-linecap:square" />
<text x="4" y="22" style="font:4px Dialog">90</text>
<line x1="16" y1="0" x2="24" y2="0" style="fill:none;stroke:rgb(0,0,0);stroke-linecap:square" />
<text x="4" y="2" style="font:4px Dialog">100</text>
<line x1="16" y1="-20" x2="24" y2="-20" style="fill:none;stroke:rgb(0,0,0);stroke-linecap:square" />
<text x="4" y="-18" style="font:4px Dialog">110</text>
<line x1="16" y1="-40" x2="24" y2="-40" style="fill:none;stroke:rgb(0,0,0);stroke-linecap:square" />
<text x="4" y="-38" style="font:4px Dialog">120</text>
<line x1="16" y1="-60" x2="24" y2="-60" style="fill:none;stroke:rgb(0,0,0);stroke-linecap:square" />
<text x="4" y="-58" style="font:4px Dialog">130</text>
<line x1="16" y1="-80" x2="24" y2="-80" style="fill:none;stroke:rgb(0,0,0);stroke-linecap:square" />
<text x="4" y="-78" style="font:4px Dialog">140</text>
<line x1="16" y1="-100" x2="24" y2="-100" style="fill:none;stroke:rgb(0,0,0);stroke-linecap:square" />
<text x="4" y="-98" style="font:4px Dialog">150</text>
<line x1="16" y1="-120" x2="24" y2="-120" style="fill:none;stroke:rgb(0,0,0);stroke-linecap:square" />
<text x="4" y="-118" style="font:4px Dialog">160</text>
<line x1="16" y1="-140" x2="24" y2="-140" style="fill:none;stroke:rgb(0,0,0);stroke-linecap:square" />
<text x="4" y="-138" style="font:4px Dialog">170</text>
<line x1="16" y1="-160" x2="24" y2="-160" style="fill:none;stroke:rgb(0,0,0);stroke-linecap:square" />
<text x="4" y="-158" style="font:4px Dialog">180</text>
<line x1="16" y1="-180" x2="24" y2="-180" style="fill:none;stroke:rgb(0,0,0);stroke-linecap:square" />
<text x="4" y="-178" style="font:4px Dialog">190</text>
<line x1="26" y1="26" x2="27" y2="27" style="fill:none;stroke:rgb(0,0,0);stroke-linecap:square" />
<text x="29" y="28" style="font:4px Dialog">3,87</text>
<line x1="42" y1="124" x2="43" y2="125" style="fill:none;stroke:rgb(0,0,0);stroke-linecap:square" />
<text x="45" y="126" style="font:4px Dialog">11,38</text>
<line x1="126" y1="44" x2="127" y2="45" style="fill:none;stroke:rgb(0,0,0);stroke-linecap:square" />
<text x="129" y="46" style="font:4px Dialog">53,78</text>
<line x1="96" y1="16" x2="97" y2="17" style="fill:none;stroke:rgb(0,0,0);stroke-linecap:square" />
<text x="99" y="18" style="font:4px Dialog">38,92</text>
<line x1="104" y1="156" x2="105" y2="157" style="fill:none;stroke:rgb(0,0,0);stroke-linecap:square" />
<text x="107" y="158" style="font:4px Dialog">42,22</text>
<line x1="190" y1="168" x2="191" y2="169" style="fill:none;stroke:rgb(0,0,0);stroke-linecap:square" />
<text x="193" y="170" style="font:4px Dialog">85,16</text>
<line x1="98" y1="132" x2="99" y2="133" style="fill:none;stroke:rgb(0,0,0);stroke-linecap:square" />
<text x="101" y="134" style="font:4px Dialog">39,34</text>
<line x1="20" y1="126" x2="21" y2="127" style="fill:none;stroke:rgb(0,0,0);stroke-linecap:square" />
<text x="23" y="128" style="font:4px Dialog">0,37</text>
<line x1="180" y1="186" x2="181" y2="187" style="fill:none;stroke:rgb(0,0,0);stroke-linecap:square" />
<text x="183" y="188" style="font:4px Dialog">80,7</text>
<line x1="158" y1="14" x2="159" y2="15" style="fill:none;stroke:rgb(0,0,0);stroke-linecap:square" />
<text x="161" y="16" style="font:4px Dialog">69,93</text>
<line x1="210" y1="36" x2="211" y2="37" style="fill:none;stroke:rgb(0,0,0);stroke-linecap:square" />
<text x="213" y="38" style="font:4px Dialog">95,82</text>
<line x1="98" y1="36" x2="99" y2="37" style="fill:none;stroke:rgb(0,0,0);stroke-linecap:square" />
<text x="101" y="38" style="font:4px Dialog">39,82</text>
<line x1="144" y1="72" x2="145" y2="73" style="fill:none;stroke:rgb(0,0,0);stroke-linecap:square" />
<text x="147" y="74" style="font:4px Dialog">62,64</text>
<line x1="138" y1="144" x2="139" y2="145" style="fill:none;stroke:rgb(0,0,0);stroke-linecap:square" />
<text x="141" y="146" style="font:4px Dialog">59,28</text>
<line x1="174" y1="142" x2="175" y2="143" style="fill:none;stroke:rgb(0,0,0);stroke-linecap:square" />
<text x="177" y="144" style="font:4px Dialog">77,29</text>
<line x1="34" y1="182" x2="35" y2="183" style="fill:none;stroke:rgb(0,0,0);stroke-linecap:square" />
<text x="37" y="184" style="font:4px Dialog">7,9</text>
<line x1="64" y1="176" x2="65" y2="177" style="fill:none;stroke:rgb(0,0,0);stroke-linecap:square" />
<text x="67" y="178" style="font:4px Dialog">22,12</text>
<line x1="72" y1="164" x2="73" y2="165" style="fill:none;stroke:rgb(0,0,0);stroke-linecap:square" />
<text x="75" y="166" style="font:4px Dialog">26,18</text>
<line x1="32" y1="34" x2="33" y2="35" style="fill:none;stroke:rgb(0,0,0);stroke-linecap:square" />
<text x="35" y="36" style="font:4px Dialog">6,83</text>
<line x1="58" y1="196" x2="59" y2="197" style="fill:none;stroke:rgb(0,0,0);stroke-linecap:square" />
<text x="61" y="198" style="font:4px Dialog">19,2</text>
<line x1="162" y1="50" x2="163" y2="51" style="fill:none;stroke:rgb(0,0,0);stroke-linecap:square" />
<text x="165" y="52" style="font:4px Dialog">71,75</text>
<line x1="116" y1="124" x2="117" y2="125" style="fill:none;stroke:rgb(0,0,0);stroke-linecap:square" />
<text x="119" y="126" style="font:4px Dialog">48,38</text>
<line x1="114" y1="104" x2="115" y2="105" style="fill:none;stroke:rgb(0,0,0);stroke-linecap:square" />
<text x="117" y="106" style="font:4px Dialog">47,48</text>
<line x1="198" y1="194" x2="199" y2="195" style="fill:none;stroke:rgb(0,0,0);stroke-linecap:square" />
<text x="201" y="196" style="font:4px Dialog">89,3</text>
<line x1="160" y1="106" x2="161" y2="107" style="fill:none;stroke:rgb(0,0,0);stroke-linecap:square" />
<text x="163" y="108" style="font:4px Dialog">70,47</text>
<line x1="68" y1="166" x2="69" y2="167" style="fill:none;stroke:rgb(0,0,0);stroke-linecap:square" />
<text x="71" y="168" style="font:4px Dialog">24,17</text>
<line x1="118" y1="150" x2="119" y2="151" style="fill:none;stroke:rgb(0,0,0);stroke-linecap:square" />
<text x="121" y="152" style="font:4px Dialog">49,25</text>
<line x1="46" y1="128" x2="47" y2="129" style="fill:none;stroke:rgb(0,0,0);stroke-linecap:square" />
<text x="49" y="130" style="font:4px Dialog">13,36</text>
<line x1="138" y1="34" x2="139" y2="35" style="fill:none;stroke:rgb(0,0,0);stroke-linecap:square" />
<text x="141" y="36" style="font:4px Dialog">59,83</text>
<line x1="26" y1="10" x2="27" y2="11" style="fill:none;stroke:rgb(0,0,0);stroke-linecap:square" />
<text x="29" y="12" style="font:4px Dialog">3,95</text>
<line x1="82" y1="160" x2="83" y2="161" style="fill:none;stroke:rgb(0,0,0);stroke-linecap:square" />
<text x="85" y="162" style="font:4px Dialog">31,20</text>
<line x1="60" y1="178" x2="61" y2="179" style="fill:none;stroke:rgb(0,0,0);stroke-linecap:square" />
<text x="63" y="180" style="font:4px Dialog">20,11</text>
<line x1="56" y1="142" x2="57" y2="143" style="fill:none;stroke:rgb(0,0,0);stroke-linecap:square" />
<text x="59" y="144" style="font:4px Dialog">18,29</text>
<line x1="140" y1="8" x2="141" y2="9" style="fill:none;stroke:rgb(0,0,0);stroke-linecap:square" />
<text x="143" y="10" style="font:4px Dialog">60,96</text>
</svg>
